/* XPM */
static char *_8f370e575cc44eda0e249e4ad66c958jNnDKG7qOC2A4Dlu[] = {
/* columns rows colors chars-per-pixel */
"64 64 127 2 ",
"   c #696D74",
".  c #6C7076",
"X  c #6D7278",
"o  c #737776",
"O  c #72767C",
"+  c #75797E",
"@  c #787C7F",
"#  c #767A81",
"$  c #7A7D83",
"%  c #7E8186",
"&  c #7E8389",
"*  c #808487",
"=  c #82858B",
"-  c #86898E",
";  c #888C8F",
":  c #868B91",
">  c #8A8D92",
",  c #8B8F98",
"<  c #8E9195",
"1  c #8C9099",
"2  c #8E9198",
"3  c #8D9298",
"4  c #8C9399",
"5  c #8F9299",
"6  c #8E9399",
"7  c #8E929B",
"8  c #8D9598",
"9  c #8F9498",
"0  c #8F949A",
"q  c #8F939C",
"w  c #8F969C",
"e  c #8E9299",
"r  c #919297",
"t  c #909495",
"y  c #909497",
"u  c #909497",
"i  c #909398",
"p  c #919598",
"a  c #919499",
"s  c #909599",
"d  c #939499",
"f  c #929699",
"g  c #90959B",
"h  c #92959A",
"j  c #91969A",
"k  c #93979A",
"l  c #93969B",
"z  c #92979B",
"x  c #95969B",
"c  c #90949D",
"v  c #92959C",
"b  c #91969C",
"n  c #92979D",
"m  c #91959E",
"M  c #92969F",
"N  c #94979C",
"B  c #96979C",
"V  c #94979E",
"C  c #92959A",
"Z  c #94989B",
"A  c #93989C",
"S  c #93989E",
"D  c #95999C",
"F  c #95989D",
"G  c #94999D",
"H  c #969A9D",
"J  c #94999F",
"K  c #96999E",
"L  c #979B9E",
"P  c #979A9F",
"I  c #969B9F",
"U  c #96999D",
"Y  c #999A9F",
"T  c #999D9E",
"R  c #989C9F",
"E  c #9A9E9F",
"W  c #989C9E",
"Q  c #9498A1",
"!  c #959AA0",
"~  c #949BA1",
"^  c #979AA1",
"/  c #979CA2",
"(  c #979EA4",
")  c #969AA0",
"_  c #989BA0",
"`  c #999DA0",
"'  c #999CA1",
"]  c #9B9FA0",
"[  c #9A9EA1",
"{  c #9A9DA2",
"}  c #9B9FA2",
"|  c #9B9EA3",
" . c #9B9EA5",
".. c #9C9FA4",
"X. c #9A9DA2",
"o. c #9CA0A3",
"O. c #9DA1A4",
"+. c #9DA0A5",
"@. c #9EA2A5",
"#. c #9FA3A6",
"$. c #9FA2A7",
"%. c #9DA1A5",
"&. c #9EA1A8",
"*. c #A0A4A5",
"=. c #A0A4A7",
"-. c #A1A3A6",
";. c #A1A5A8",
":. c #A2A6A9",
">. c #A1A4AB",
",. c #A3A7AA",
"<. c #A3A6AB",
"1. c #A2A5AC",
"2. c #A3A6AD",
"3. c #A2A5AA",
"4. c #A4A8A9",
"5. c #A4A8AB",
"6. c #A5A9AC",
"7. c #A5A9AC",
"8. c #A8ACAF",
"9. c #A9ACAF",
"0. c #A9ADB0",
"q. c #ABAFB2",
"w. c #AEB2B5",
"e. c #ADB1B4",
"r. c #B0B4B7",
"t. c #B1B5B8",
"y. c #B5B9BC",
/* pixels */
"= = & : w 8 & 8 > & > > < > % = & : = : : 7 , : = , & > = = = & , - r r - r B r 3 { { 3 r x B B i : > i i { B i ; i > 3 > i > - ",
"& - - & w & & w - & 3 8 3 - # * & : & : , : : = % = % & & & & = r > > > - > r , p Y r > 3 3 i i i = ; i , i i N Y J > p < > , : ",
"& : & & & & & & 4 & - - - = + $ & & # : = = = & $ = % % & # $ = r - = - ; - ; , > > > > ; * ; < < = : v x N B v r < ; p > - - = ",
"& & & % & & & & % % & & - = + $ $ $ # = = & : : - > = & : # $ & r > = > d r r B > > < x > ; > v - = < > > B x > - < > t r , , $ ",
"& & % # # % & & # $ = = & # O & # # # & & = : : - - $ $ & # # # * $ # = , r , B p > ; > 3 > < ; > > B r < | ^ > - > , r > , < % ",
"& & # # % # & % # & & & $ + O $ # $ # & & = : = - , & & : = # # % % & - r B x | Z Z 3 < t < < ; < - < > - < r > r > > r > - > % ",
"& & # % & & & & # # $ = : % # $ # # $ $ $ = % & $ & $ $ = $ $ # # % = = : < i x < Z Z t < ; ; 3 ' > < r > > < r v < < r > - r - ",
"& & # & , & & & : : & = & $ $ - $ # # # # : % & $ & : $ = # & # # % = = = , > > < E o.{ ] f x Z B , < < - , < < > : > ; = - B , ",
"% % & & & : & % : = = : $ # # # # # # & = = & % = % % % $ $ + + O % % $ % > , ; x ' +.B o.Z Z > x v ; : > = ; ; v > > r * % r ; ",
"& # % & & & : > # # $ $ $ # # #     # # # & > = = % % $ + + $ % % = = $ - $ > - , B | d H < 3 ; > > - ; : ; ; ; v > ; x > = = $ ",
"& # & > & 4 4 > # # # # # #     . # # # # & : = = = - * $ + + $ % > % - ; = r ; > x r < x r i i x x x i r v ; ; - < ; > < - * $ ",
"& & & & & : 4 > : = = , : = & $ # = & $ = = & : = = = = * $ $ $ # - = r , B d , > x ; < x J i N r > t < ; < ; ; - x r > < ; : > ",
"4 & % & & & & - & & & 1 = & & : = : = : r r % > = & $ & % = - - @ % r , d d > - > Y r < < < > > < ; < < < t ; t f d < r , * - > ",
", & % & & : & & , & & & & & $ $ , : , M r > = = = = $ % = = > - - = r r r , % - > { x > * = > > < = > < ; ; ; ; ; ; - < > - > - ",
"w & % % # & & & & & & & , & , , 1 , m Q x , = % = - $ % = $ = = > > > x > r $ - > v < * o * p p > > < < ; - < - * ; ; ; , , d > ",
"w & & & & , : 1 & & $ $ & 1 $ : 7 c r r B r & & & & $ $ @ @ ; > > r r r , > - * * - - @ o = p : ; > > < - - r - ; r ; > > = > , ",
"w 8 & 4 S 8 4 - : = % 4 4 & & > 4 8 7 8 7 : % & * $ % % $ + - ; > > { i N r * * * ; @ * o - - * * > k * > > t - 8 > > > D > t t ",
": 4 > 8 8 , 4 > - - - : 4 : : 4 4 4 b w 7 - & = * @ $ * # - $ - > N i { ..x : * ; * @ * @ = * @ * ; > ; t > t t t t t > k t f 8 ",
": > : w w 1 8 4 & - : 4 3 : - : 4 4 S p 7 & - = - $ @ - % = . $ ; > > N N i - * t * * * * * * @ * * ; ; k 8 k D 8 k < > < f f f ",
"8 : & 8 q w Q : - - , b 3 - - 1 8 4 J 8 3 = : = > - $ > r = % - i > N > > i * - - * - - = * - * = = * t D k f D f < > t t f < k ",
"3 : , 7 w Q q 1 8 4 7 8 > - - 8 3 3 J p p ; i > > ; = % > $ - r v - 3 $ = = % o @ * ; ; 3 - - * * * > t k k f f k t - < k H > t ",
"> > 8 J Q Q w w Q S p : & : - < 3 p p N ' 3 p > ; < v = - > - r Y r > * t - ; @ @ * t ; > ; - * * ; > t k k t k H H < < f k > * ",
"< ; 3 p S S 1 8 Q w w : : > = < < p p Y Y r r - % = > = : Y > > Z < t > t - ; * * - ; ; > > ; = = ; ; t t f t f f H f < 8 t > ; ",
"; > 4 , 4 > - 4 ( 8 w 8 w 8 & > - z 3 N J > > : : : - - i i x > x ; H < * @ @ @ @ = ; t i > ; r ; ; = t < > - ; > > f f T t k T ",
"4 , p S 3 7 p w 1 8 i b < - % - 3 J > J > > > - > = r x J x ' J ; ; Z E p @ @ = + = Y 3 x i > ; * % ; = f < > > t k t z H p 3 N ",
"8 > b 8 > 7 b p 4 7 7 J 4 ; & ; > x > p > r p > # : J i p =.<.J t < J @.o.= * ; $ - x 3 r 3 : = - - k k ] t t < f k z t t b x 3 ",
"' 7 b 7 p 7 i 7 7 i 3 p < ; % = 3 p r r < r Y > $ > x p Z @.o.f E #.,.@.@.t - ; - r B r x 3 > - ; * H k k > < f T k 8 < > p Y r ",
"^ > p p J i p v ^ N 3 p 3 ; * - r r < 3 x < J 3 ; p p Z Z o.Z < E 8.8.@.o.t - ; ; x v > i > r ; t ; f k t < f f T f f < > r p 3 ",
"i - i > J i N { ' J i p 3 > - < i > > p J > J Z > E E ' H o.f t Z o.o.#.o.< * < ; v < > 3 > t < t ; T O.H H H < p E Z i p > : ; ",
"r : > > > > i | i p > i > > ; < Z < > t x ; t Z p Y @.*.J < - ; z H H ' Z ; = < : 3 < > r 3 J z < ; T ] f f f < p { Y 3 i i > : ",
"N i i > > > > N > 3 > r > < ; < ' p 3 Z x ; J o.o.J o.o.f * ; < ] #.o.] z f > > > > > - t x z < < 4 k k ; > < > x Z x > > N B B ",
"N x p p N i > N 3 x r > > r t x @.E Z E H p *.6.@.Y E < < < o.H 8.6.o.4.o.] f t i > p 3 Y ' z < T k o.k > < < ; t > > N N b N N ",
"+.Y +.d Y B x B r x r r r r x Y ] ] E ] t t 6.*.E :.> < ,.3.@.,.w.8.E @.,.Z ; t * r x < < 3. .1.2.^ | | v < x { x r < < * t { Y ",
"Y | 3.Y Y B B B r r r x Y Y Y -.] ] ] ] Z < T t J 8.o.@.6.6.q.r.t.e.E #.#.J < < > ; r < B 3.| ^ &.1.+.^ > N i > t < < r = 3 ' @.",
"B Y | B ....Y x r r x ] B *.Y ] *.E f < - ; Z z 6.8.' ' q.r.y.q.t.8.z z z Z < t r - , ; B | | ^ ^ 7.+.| i { < r Z t < Y : - p p ",
"t x d d ] -.-.Y Y d ] ] t x ; t o.H Z t t Z t Z 6.q.,.@.,.w.y.w.8.:.H E E H < ; - - > - > v | | ^ 3.| B - ; - - < r 3 J r : b i ",
"r Z ' E Y -.-.4.-.] 4.4.t d > r H E ' E Z Z < < E *.8.,.' <.w.0.@.,.Y ' H Z ; * * ; , ; % > v v ^ &.3.B : > B > > r > > < > { ' ",
"J E ' { -.4.-.4.4.4.-.] f E Y -.o.] E J t < < ; 3 x Y p i @.<...3.@.N { J 3 = % * > > ; % - - - r > > , > > | < r x > : r r ' E ",
"o.E t J Y 4.-.-.9.9.-.x r x E H o.o.' o.p 3 p ; > p J 3 > { 3...{ ' x @.3.x * $ * , , > = * * % c r : x > - < < - > : ; x Z J E ",
"@.Z < t r Y Y 4.-.4.x ; 3 Z ' o.E H z H < ; t = > r x > > Y { N N p : { =.i * * * > < - - $ $ = = N > r - : - ; > > ; * 3 t Z o.",
"Z T t > t H *.*.E f t < > k ] T E E Z Z < < H t > N i > > ..^ > b > v x o.Y > ; = > > > = $ * * , q = - , = , - - i * = < x x H ",
"T Z ; t ] ] o.H H H H f < t T ] z Z x Z t H o.o.N ..{ N i ^ { N i : > - 3 t > > : r : > 3 : > ; = r ; r r > r > > > * * < > d B ",
"Z Z > t J E E Z < Z H k t > < k J J Z E t J o.E { { N x i { { Y > : r - - r < ; - ; ; > i r > - > > = ; > > B < i > : $ t ; d T ",
"< t t ; ; ; < E f f f f f < ; > t t Z J Z p o.E ..{ p N N { i > > - > = - < > * = : > < p x 3 - , ; = < v v | > - , | > T t d ; ",
"< > - * * - ; t k k k k H t > < < < H Z H t @.E { N i J Z H < < > = - % * - ; = % - ; > x x < * > ; ; r < v | > = < x < d f r ; ",
"> - - * ; < < t t t 8 k k f t Z < < H Z J t o.' p p p { Z Z z H x = ; - - ; - = = = - - < x < * B r , x < r v * > - - - t t r r ",
"; ; < - ; < ; z > > > < < < f f > > < f < < ' @.' ' J ..J p < f r ; t < Z < - - < ; ; ; r t ; ; ..B B | | Y , # = % - > d r ; r ",
"p < < = * = * < t ; ; < < t f t > < < t * - < Z x r 3 N p r > * ; = r < Z < - < < ; < r t ; - < { Y { | x d > % , : r - ; ; r r ",
"< f - * - > < Z Z < < f Z Z Z t f t - t = = ; ; ; = k ] k t > = - * t < t ; ; ; f < - t t 3 > J { { { J J > = - i v < r < > v v ",
"< < - - - > f o.z t t Z H t < ; < k < * % ; t > t - t T k Z f ; - - < - < ; < r > ; - < t p r p Y ' ' Y x > ; > i i > - - - < r ",
"t t - > - < p x < t < Z Z Z t 3 ; t < % @ > ; t T t k D t t < * t < < - ; ; ; x - ; ; < 3 x < > i N p x N N v - < < > = - > , r ",
"< < < f > p ' Y Z H f z Z z f < < < t ; * t ; k < < k 8 > < > ; p t 3 Z p > = J > > < r < Z t * - N ' { x x N > - : < - > v > < ",
"; < x N - p ..' t Z t Z E Z t < f > f < < Z - x < ; < > - ; > ; > > r ' ' p - x Z t t < t f t - = > N v r r > - = - - = > d > < ",
"Z J i i : b { r > < ; < Z Z Z E < > > - ; f = > t < t t t k > * - > p J x Z > 3 f < < > ; < < % - ; ; - 3 i : - ; > = % > d < v ",
"{ N > p v { | > < < < > t < t H t < Z ; - f ; ; ; ; < 8 T O.f > ; 3 x i 3 J t < < t < - t < ; @ - > x > r 3 - ..r x - = i N B +.",
"@.@.{ <.{ { | Y < Z t z Z ; < J f t T H > < ; ; ; < < > 8 H k 8 : : i i r N J H < Z H > Z Z < * > , N 3 i r * ..r x - > N B | 3.",
"&. . .&.1.&.&. .Z J p p N > x { { r x p r ; = > x r > v B r B , x r v r r r > p 3 > r > E o.; ; x : x i i t > J x > 3 > < Y { @.",
"1. . .^ &.&.| Q 3 t ; r i 3 i { B v E N i > > x > r r v r < B x 3 x > > i r > N x i J r 3 t ; - > ; - > > > > r 3 i p > ; x ' { ",
"( ^ Q x >.>.&.^ < > = 3 i i p { , < x r > 3 > i > x v r r i B , > Y : : N i N ' N i { x ; < t - N > - > x 3 r 3 > x E 3 ; 3 x J ",
"Q ^ Q x &.&.| ^ r < > > i > > r - , r < r 3 > ; - > , < > , > * - > * ; N r J ' x 3 i N < t J ; i > ; 3 x r 3 > > x ' p > r J ' ",
": 8 w , B r Q ^ B B B , i > : : d r q B d r > > * = : > - - * % % $ # : > ; i i N p i J B N N > > - > v x p 3 x < 3 Y x > > > < ",
"% : 7 : , , r Q : < r < > i > > > > , r v ; < v - = ; : ; - = - * $ = i 3 : i r > p { N { i i c i : N N x J > N Z t Z J > : = - ",
": 7 3 : q , , r % % - - - > = - * - - , > ; > > - % % $ * ; - % - - 7 N x i x i > x | i > i r r i > x B p 7 > r t < x J B x r < ",
"- - = & r ; - , - * > > < - % - - - - r r , , - - % = $ $ - = % = ; p i p x 3 i r v ..> - c < : : > i { E r 3 t ; - r i i < > = "
};
