/* XPM */
static char *_610623364726[] = {
/* columns rows colors chars-per-pixel */
"64 64 53 1 ",
"  c #070508",
". c #090609",
"X c #0E0D0E",
"o c #110D0F",
"O c #11110F",
"+ c #0F0E10",
"@ c #130E12",
"# c #0F1110",
"$ c #151314",
"% c #191516",
"& c #161817",
"* c #191816",
"= c #171518",
"- c #1A1619",
"; c #171918",
": c #1B1A1B",
"> c #20171A",
", c #211C1E",
"< c #1E201F",
"1 c #22211F",
"2 c #1F1D20",
"3 c #221E21",
"4 c #242223",
"5 c #282427",
"6 c #272528",
"7 c #2A2529",
"8 c #2D2B2C",
"9 c #312C2E",
"0 c #32312F",
"q c #2F2D30",
"w c #322E31",
"e c #343334",
"r c #383436",
"t c #363638",
"y c #3B3639",
"u c #3C3A3C",
"i c #413E3F",
"p c #3F3D40",
"a c #413E41",
"s c #444344",
"d c #474648",
"f c #4A474A",
"g c #4B4A4C",
"h c #504B4F",
"j c #534E52",
"k c #555455",
"l c #5B595B",
"z c #5E5E60",
"x c #655F63",
"c c #646265",
"v c #6E6C6F",
"b c #747474",
"n c #89878A",
/* pixels */
"::O,4::%%@::=;$*,::ee33>3%%401>55%o:@%-@=@373@==@=@====$$$:;;:4$",
"O::,wf,:-%$$$=$*%%%57,3:%-:>O>0ii5>@@>3%--77-@=-@@=--%%$-$$$;::$",
"%-51:sf*-%%=**$%*,->,:,@,-@->51>7>>>-33>->33-==-@@==-%==:::4::;;",
",:$*$$uu@%%@$$$$,1*%%%:@%$-%>>Oo97%@@33@----=-=@=====@=-;;:4:;*;",
"%%O$:-$z:$$#$*$*->-%@--%%ooo>@@%7q+@@9w-=@=====+@====@@-;*$$:;;$",
"OO:O%4Odp:#&::$*%$$$%--%@@O>o@@o-q@>@w3o=@@==++=@=--=-==$;:*<;;$",
"%O*O1OOrg4#**$$O%%%%%>%%%@@%o@>O=7>>@97-=@+=+=+====--->>#$*;;$+$",
"O%*:$:*0g6;;#**$%%-%%>:-%>>@>O@>->>-@93@-=@+=====@=@=-33:;X#$$X$",
"#*&$<*&6s&:*&:$$$$-%>:O:>3-=-->@->=@=73--@@@@=+2$$$=-$$:;;#X$$##",
"#:#4:<;6k<#$;;$;%%:$$4,%33@@==@@@3-3-3w-@-@-+===$$@$=$$-$$$#$*;;",
"8*:<*$:&d4;&$;$$$o:>%%%-3>@-@@@@33@77-3-7@=@=+=@$==@$$%:$$$$#$$$",
"e&4$:;*:<4<&#:;#%%%%>>>>=--@=@=@aa327>-@pp+@@=+@$=$$@$$-$$#&$$:<",
"<:;$<6X<::$;$*$$=-%%->>3-=@@=-=@qp@=7---@j2+=@@=$=@+$$$$O##$$$<4",
"$$*;:;*$;$$$*$$&@@@37>-=-@@>---3av2-p-@-+pp+@+-@=====-$$$$&$#X#$",
"#X;:&;8$#$;$$$;#@-->7pp+-@>2---wln7@73=---q622@@=2==2:$$**$$$##X",
"X$#;&6:$*$;$;$;#%@@@@7ap-23>>>>7aa@q7==-2227p222@@+24:$#;:$#$$XX",
"X$$X*<:$&$$*#$$#$:$$%@=ga73>3@>@>33x3-@--3:%9go%==-2$*:$$$#$$#X#",
"##$#$;$$$*:;$$&#$<:X$:;=33i3@-37pp3j@->3@%-%%ii%=@%=X$*#$:;$&:*X",
"$#X$$#$:$$;$*$::;<$$4=;;@-3l3@33a333@-@-==%$%4i1%%$@X$*O*&;$$;*X",
"$#XXXX$<$#$$&#&:4::4=+$+@o%>h3@>ap-@@@--=@$%1%>1:%$$#$*$;$$$$$$$",
"#####XXX#O$::##<ae2++$$=@@@@>9@@2p+-%@@@=+2%>,%>-%$$@%*$$&;$$<<:",
"#$XXXXXX#$X:;*6d8$==+$++@%o>o@7@pa-@@%@-@-3:%>,%%%$$$%$$$*$#;44;",
"$$X.X###$##&:<eh&:=$$$#;@@@@->w@pp.2%->@%33:*%%>%-%$%$$$$&$$<<:$",
"*$X###X$##$*1$$:$:@$=+$2@%@@o33pr>=-=%@:,-:@>>>%%%%$$$&&$::$;:;$",
"$<&O$#<<:$:-:$:***$=@%=$=$+2=@>wq-%o%@>@@%>->>--%%$$&**O<4<<$16O",
"O:O*:;,:$%$:$$%%#$=======$=+@@@@r3@%.@o@%%-%----$$*$***O&t8O*:<O",
":<**-$:$$$%:$$%$e5=@@=$@+$$+>>3-q3@@>>@@@%%%%%%$$$$&$**&#dd&<O<<",
"<<:*$@-=$$:$*$:%85,---$$$+2=3393333-,>@%@@>-%@@$$%%O&&&$:ut&<*1*",
"O**$$$==%$*$$#:,::*>*%$@=+2=22--ia05>>%>%-:%$$$$$$%$&&$&0s6**&<O",
"**$$$$==%%$:$;%:,>%oO%$$==+=2@-@,14OO%>:-%%%$$+$$%;$$$&O0k<:****",
":**#$==;%%*<*;$-%%>$%$%:2q623-2@%4e,*$>O=%%$$$@+$$$$&$$&4kO$<***",
"$$*&$==::*::&$;:>%%%%*$%22d=37o@e7Oo$ii0=---22=@@$=$#$&#<z*<*O*O",
"%$*$$$$>::*;141:-:%$*$$$OX4<:7%@eetfad633@-39%@@$$%$@=2=+g+2++==",
":$$$*X:@:,::141<%--$$*$&$:;:>,7a58up-%=ear%>>3@o:@@@@@@=+pp=+2+2",
",%$*X$%>@:$$%::$%%:$$$&$$OX*de,,:@@@@-29aiqww--33-%%=@@=+2jq2-22",
",-;$;$@%@-*#$:*&%$:$$$*$&*:O99@@+$:%-@oo@@-o@@333-@%=@@@=2qp:3=$",
"oib:@@@%=$$$&*$;>$%%$$$$O:$$:e$@==@@@-@@->@3@@%%2@>-@@@==<-$3@$=",
"5lc:+2@@%$$$*$*::%O$&$##O*$*=:3:@@->-@@--23@-%2a%-->>-===554@@@$",
"pf $=.%$-:-$:::::*&$&$$#$#*;4@:=@@@@=-%>@2-3--j3@---@@-@:$5:%*:o",
"jf7%2==$%:$$$%%%**$&*$#$*$&<-:@-@>@-@@@@@=323h8+-@---===$:$$:,*0",
"uq82+2+22%@-%%=-::*#$$#;#&::::=@@@>>:%%@-@33q:$@@@%--%%%$$%$$:0s",
":=2=+=+=2--%%@$-$*$#*$#$;$;;=:$=-@@>3>%%@--3q=@=o@$%%=@@$$$$:<<:",
"#$=$==+=--%$@$$%###$*$$*;;$$$==$=@@>,,::-2-wu@@@@%===@%@$%$$$*$#",
"$=$$$===-%%$@%$%$$$$$&:4;$##@$$$@@==%%>,>-7j2-=o$$==%%@=$$$$#X$;",
"+=$@===$--=$$$$$$###$$:<$XX##=$$=@=$@=:,-3h3%=%@@$$$$$%%$$$$$$#$",
"+==2========%$:;;$#$$&&$#XXX#=#=@=@$$=-:-y9o@2$@$@$$$$%%$$;*$:$#",
"$=@@@++=-=$$%$$:$$**$##X#X++$$#$-@@=$$$$33%-@@8o@@$=$%$:$::$$*$$",
"+$2===+==$$$:$$;$;<:##$$XXX+++X$---=$$=$-@>@@X:3%%$@%%$%%$$;;$#X",
"=#==@$$===$=@$-4s<4:$$#$#$X#$X#X$==$$==$$$$$<:$4@,:$$:$:$$$:*$$$",
";=##=$=$===+=-@8k<#$;*$#::#####$==$==$$$$$$$:::e9$-%X:-$%$$$$#&$",
"#$#$@+$$===@$-:y8#$::$#$;:$:$$#$==$==$$$$o$o$-:8s0:%=$#$$:%:*$&$",
"$;==+2$$$+2=$$8e<$$$&;;$&$$5$&$$=$$==$*$$$$##:*$4ke$***:$%$:;$$$",
";2<#$=@$$$-:-$4:4<;#$;;&*#:6&*;&=;=$$;;$$*;$#:*X$5$#:#$#**O*<*$;",
"$2e#=++@@$:@$-$:#$$*$$$*$X<6$**$22;=$*;**$$$#$$;#:<$X*$$%**<<***",
"$6e::+=$$=-$$$X4*#X&$&$&$#:::<$$<:;=$&&$$#$$&$$:<;:$$$X#o**:<**&",
";q:#$=2+$$$4%@$:#$#*$$$$$*&#<<;4<;$$&$$&$$*$;;$$;$$$##$$*1<O&*<1",
"&&$%-$@=$$-=@@2@$o$:%$$$;*::$:,:;$$$$;<:$#:$$;$$###;$#;$%O#;;$*:",
"O$%$==@@+2qaw2@=%$$X:$$$;04*:$:,$;;$*68<;&$*;$#$$$X$$#:$OO$*$*&$",
"O*%$--=@==2qyw3@$:%$:$$;;:k451*::$;$:68<$$$$#$:#$$#*:*$$OO$&**&O",
"$:@:%---@--@-:2::$$%$**$:$yg3$*:::-$$::**:*$$:<$X$$:<;$#$$$*&***",
"*::$--32%%%%:-%%::%$$$*$$:$p6O::*%%$$$:*o1:*::X#X##$;;$$*$$$&**<",
"*$e@33-%@@%,>:%:*$:$e:*;$$<$46:::$$:$:::4$:<$Xo$X##$&$*;*$$*$$O*",
"$%e:73:$%$%*O%-%:$*:d8:&:;#$:8455$$::%%::.:u9$$o#X#$&*&$$$$*&**O",
"=:%,3--%$$*,%%*%:::et4:<::*:ua8,::-$$$%O$:*us$X$$#$$$**$#&*$&*<*"
};
