/* XPM */
static char *c41a66b1ae304341fd9cfce32420d560KeDn4SwcllcsUrKF[] = {
/* columns rows colors chars-per-pixel */
"64 64 202 2 ",
"   c #164B00",
".  c #184C04",
"X  c #1E4B09",
"o  c #1B5104",
"O  c #1F510A",
"+  c #1D5410",
"@  c #205306",
"#  c #23550C",
"$  c #2C560C",
"%  c #245B0C",
"&  c #285E0C",
"*  c #235414",
"=  c #295615",
"-  c #265A13",
";  c #2B5D13",
":  c #2B5D1A",
">  c #315E16",
",  c #315E1D",
"<  c #266107",
"1  c #2C620D",
"2  c #326B0E",
"3  c #2F700C",
"4  c #35740B",
"5  c #2D6313",
"6  c #2D6816",
"7  c #2E631B",
"8  c #2F681B",
"9  c #326514",
"0  c #346B15",
"q  c #396D14",
"w  c #34651B",
"e  c #38651C",
"r  c #356B1B",
"t  c #3A6D1C",
"y  c #357214",
"u  c #3A7315",
"i  c #3C7A15",
"p  c #36721B",
"a  c #3C731C",
"s  c #3D7A1C",
"d  c #345D23",
"f  c #346421",
"g  c #3A6425",
"h  c #366C21",
"j  c #3B6D22",
"k  c #376429",
"l  c #3B6D2A",
"z  c #3D7323",
"x  c #3E7923",
"c  c #3E722A",
"v  c #3F7A2A",
"b  c #3C7030",
"n  c #3F7834",
"m  c #417615",
"M  c #427A17",
"N  c #42761D",
"B  c #427B1D",
"V  c #406E26",
"C  c #416D2B",
"Z  c #486D28",
"A  c #427524",
"S  c #497527",
"D  c #447B24",
"F  c #497E24",
"G  c #43752A",
"H  c #49752C",
"J  c #457B2B",
"K  c #497D2C",
"L  c #507E2C",
"P  c #457432",
"I  c #4A7534",
"U  c #467B32",
"Y  c #4B7D32",
"T  c #477F38",
"R  c #4B7D3A",
"E  c #527D34",
"W  c #408216",
"Q  c #45811C",
"!  c #49831F",
"~  c #4F8F1F",
"^  c #46901F",
"/  c #458224",
"(  c #4A8325",
")  c #478822",
"_  c #4C8A24",
"`  c #46822B",
"'  c #4B832C",
"]  c #46892A",
"[  c #4D8A2B",
"{  c #528526",
"}  c #528B26",
"|  c #51852D",
" . c #528B2D",
".. c #598D2D",
"X. c #4E9022",
"o. c #529124",
"O. c #579A27",
"+. c #589826",
"@. c #54922D",
"#. c #5A942E",
"$. c #5C9A2E",
"%. c #478031",
"&. c #4D8432",
"*. c #4E8A33",
"=. c #478039",
"-. c #4E8339",
";. c #4F8D38",
":. c #528533",
">. c #548B33",
",. c #598E34",
"<. c #52853B",
"1. c #5A853C",
"2. c #558B3A",
"3. c #5A8D3B",
"4. c #569233",
"5. c #5B9434",
"6. c #569930",
"7. c #5C9A34",
"8. c #56913A",
"9. c #5B933B",
"0. c #579A3A",
"q. c #5D9A3B",
"w. c #619E2E",
"e. c #608E34",
"r. c #628D3C",
"t. c #629631",
"y. c #619C36",
"u. c #61953D",
"i. c #629B3C",
"p. c #689B3C",
"a. c #5DA33A",
"s. c #64A336",
"d. c #6EA337",
"f. c #67A834",
"g. c #68AB37",
"h. c #64A23C",
"j. c #69A43D",
"k. c #63A83B",
"l. c #6CAD3F",
"z. c #70A73F",
"x. c #538542",
"c. c #598240",
"v. c #578B40",
"b. c #5B8D42",
"n. c #5E9240",
"m. c #5D9342",
"M. c #5E9944",
"N. c #5F9148",
"B. c #619741",
"V. c #629747",
"C. c #629544",
"Z. c #699540",
"A. c #639A41",
"S. c #649B44",
"D. c #6A9C43",
"F. c #6A9D43",
"G. c #62964A",
"H. c #63984A",
"J. c #669C4B",
"K. c #689948",
"L. c #699D4A",
"P. c #659352",
"I. c #6C9752",
"U. c #6A9D53",
"Y. c #5EA444",
"T. c #5DA041",
"R. c #65A142",
"E. c #65A243",
"W. c #69A146",
"Q. c #6BA344",
"!. c #6BA946",
"~. c #67A24A",
"^. c #69A148",
"/. c #6AA048",
"(. c #6CA34B",
"). c #6EAA4B",
"_. c #71A445",
"`. c #71AB45",
"'. c #71A54B",
"]. c #72AB4C",
"[. c #78AB4C",
"{. c #79AC4F",
"}. c #78AB4C",
"|. c #73B046",
" X c #76B44C",
".X c #6DA250",
"XX c #6CA253",
"oX c #6EA952",
"OX c #72A652",
"+X c #72A850",
"@X c #74AC53",
"#X c #7AAF53",
"$X c #72A559",
"%X c #76AC5A",
"&X c #7AAB59",
"*X c #7BB356",
"=X c #7EB55B",
"-X c #7EB95B",
";X c #7CB463",
":X c #86BB51",
">X c #84BA5E",
",X c #80B662",
/* pixels */
"Y.%.5 3.C V M @.[ 8.& a H Y q | E.2.Q.A.i.D.o.h.q.8.D 8.q.#.4.( ,.9.J.>.2.A K 2.,...#.#.7...q.7.,.t E 1.e.{.Q.] } D j (.f.@.` h ",
"E.9.3.' g Y u.D < W.F :.z 9.| | ).u 9.q s E.5._ 7.[ / ` D _  .| a n.e % :.' z p K ( u q.S.>.'  .'.5.m _. .B i.M j.u.C.] h.7.*.J ",
" .9.,.D I Y :.3.x /./.W.A.8.A.u.8.( K &.N ' [ D f.} D q.].9.B.' ' J J r >.:.9.&.S 9 2.:.n.K ,. .{.t.:Xe.:.9 S.5.A (.n.' ] h...@.",
"/.3.| | b.b.D 1.a /.i.5.u.[ Q 5.,.a ' 9.>.K 5.*X`...i.9.K.z z z J 3.C.j A a 4.[ t F t K :.>.| ..D.5.d.} [ ` D :.G ( a -.w *. .F ",
"3.z q D.b.1.q K.' a ( 5.h.0.0.$.2.D D q.,.a 9.,.A.| ' t A K &.F B.' e E 3.K F  .q F S V L p.D.{ K S z *.S.*.' z K y.#.r 7 <.z A ",
"A G u.S Y q B | ,. . .4.4.E.y._ ( ( _ q. .4.| >.K.a :.L 9 &X4.( D q e.r.A E K F | H Z.1.> 1.E e J.2.c Y D 2 -.2.z p Z.~.n.3.A. .",
"5.| ,.| E Z >.' .. .4.4.' x i.y.M i 6.0.E.h._ ( >.4.B ( | S.[ @.5.5.}.m $ Z ' >.D.u.1.C.| E Y G ' F D B.m.t K / -.-.U a ].F  . .",
"5.Q.N Z.I.G.D 2.{ !./ &.v s /  .7./ W @.[ ).].@.q.$.#.i.| B ).5. .t...1.1.E Z.u.#.t.i.{ { ..z # h.5.B q a n.,.E.Q.K F u.Q.1.T T ",
",.E.[ 5.Q.,.' 8.4.( G -.E.0.` i x ;.@._ W @.7.h.j.6.7.!./ K ' ,.3.e.e.p.r.V F _._.t.Q.~...' J ;.S.&.5. .B ,.:.$XI w J 7 l J B '.",
" .4.i.0.[ q.).] ' #. .2.&.v J 0.D p ;.[ / 7.@. .4.{._ ,.A.S A | { D.D.D.3.{ e._.}.t.[ 4.q.A.2.[ r F u 9.,.,.OXK C :.F r <.3.K .X",
"i / @.Q y.[ [ s / 5.K J 2.*.z D F z % v q.y  .p F  .[ ] K F | (.{ Q._.#X(.,.#.h.7._ q.x ..J z ] :.9.F >X!.( y  .K H ,.y.q.9.S B.",
"] / 0.[ q./ Q E.h.q.K j  .F w K a z %.x 2.).Q.( a / s  .9.r.K K >.p.}.,._ >.5.( @.O.4.` ,.& A K p :.8.(.]. .( Q.K.K.&.@.7.` 2./ ",
"0.i.D 4.i y *.0.:.p.p.V t -.U ( F a D ` ] 4.( u.y.@.i } 9.Z.2.| & _._.m | u.p F ).|.0.D @.>.2.a S 9.-./ ] D.5.u D.8.%.( a.[ E.o.",
"t ' 0.' D 4./ W S.,.,.L.,.H.%.u ( :.a / | F s S.F.B i @. .,.'.| >.'.Q.| A K r >.E.@.Q.1 / *.r 9 ' oX2.s 0.y ' a ( z %.5 *.E.j.o.",
"& 9 Y 0 a F 9.,.' B > b.i.q.3.' N a p 4.q.4.9.H.H >.B p.5.u Q. .,.h.u. .| :.&.m.0._ h.D 5.p % &.[ 8.[ ( ).2.G %.0.S.z r ,.5.y.8.",
"e A ; 9 z D ..B z { q u.@X*.;.h.z 6 p s 4.] J <.H J B ).*XF.j.7.{ ..@. .K.<.&.j ] ! ' q [ 0.6 0.8.s q.@.[ >.b.h 0 u.5.8.u M :.f ",
"c ' K G U / / = F 4.J -.a.;.g S.~ ] / *.U J ' > :.<.:.u.D.].l.*.E.-.t. .<.H r 9.,.i./ D ~.X.X./ 6.X.h.4.Q.u z i.<.J D 9.9 K 8.9.",
"( :.E N 0 0 >.u G / ~.J.) a.| Q.4.D i.u.( / :.g :.j t | >._ @.Q [ 2.p.>XC.D 3.K.S.=X' :.E.7.h.[ q.!.y.S.D.S 5 &.H K K.K A a D ..",
"#.Y z  .6.p D 5.y W ( A.` p A.*.8./ / i.h.Q.' F S.K D 9  .0 / ).h.< s b.9. .v [ ;XS.5 Q #.} 2.M.7.} _ :.( K U z P V 1.m 9 D 0.5.",
"J s  .9.@.[ y [ D ` o K *XD ] h.,.u a J  .i.m...b.'.C.3.q.h.[ y. X0.' &.q.! J 4.[ M.D ' } u >.3.B @.,.3.5.V I G = H t :.D J oXm.",
"c >.[ m.M.4.@.v a -.; ` ,.' *.E./ #.A J  .4.XX' # >.A.9./ a n./ } ~.D 7 s Q &.) 7.*.-.-.A.3.J @.E.a.q.9.>.:.> S C I 9 t ' z r n.",
"7 p / ` ;.5 < M.*.S./ *.z a ;.l ' ' i. .5.'.P G J +X].@XS.' Y ' B F J J D B r [ k.[ z n.B.| u ' 6.k.3 a ,.u.E L O R K z r G h - ",
"A v &.[ &.e w *.v 7 0.0.c s _ :.>.t @X5.( / ' H J ~.).o.8.c e j K.j Q ' D p J 0.h.4.` T z 9.( x 6.l.k.h.p._.L.[ ' 2.8.*.- J .XM.",
"> 9.` / J H h J  .j ;.X.i.%Xx G 5.S.>X`.' B _.5.n.>.$.$.` c K O D A j._ &.,.).[ m.,.:.C.>.h.,.8 } w.y._ o.7.] h.4.7.4.D h G 1.a ",
"/ q.Q B 0 Y 2.D ! *.D [ O._ B s K ' ..4.E.*.] !.m.F  .E.5.5.M C.b.9.t.Y U &.:.,.8.,.4...q.q.4.9 _ Q.4.s  .8.F >.A j Y b.-.>.2.Q.",
"m.'  .i.' ' 9.].9.G < / [ D 5 2.].>.p [ / [ a -.j <.r >.' D J K *.g # m.p ` z | u ( !.u.[ 8.H S p F y.$.$.h...D > e A L.a ' m.J ",
"U z x s Q.5.@.#.r 7 D 0.r + =.-.(.J 2.oXz x &.C.>.5 z F F <.=.A.'   j b.' 4.F h Q ] :.3.:.-.h g ,.2 q.Q.@./ u | 1.9 J 9.9.D z A.",
"J 9.8.D.*Xi.u Q 5.F ,.i.8.p U 1 ; M.q.4.3.b.r J S.S.' 9. .3.K.9.~.K.&.r K 5.F G F a 1.:.G >.(.,.Q.:.5.L.i.a 9.p.' ' D <.3.r 2.a ",
"J t 2.[ ).i.4.8.p.'.8.D E.p.2 3.' r r 8.z F &.U x / ,X9.S 4.S.p >.XX*./ ,.Y O / *.s 2.t 6 p [ D.9.s  .4.i.z Y l # t F {.Q ] :.G ",
"0 *.9.[ B ] ~.x ' :.x.T F u.B U J.v 9 x p z m.-.<.i.3.$X9 N D J 7 ' / B >.b.K y.5.( u..X9.D *.).J >.' 9 J z T d h J (  .,.[ &.j ",
"J M.oXp [ ,.0 J D ' x r p K J -.%.n.,.] ` % J z Y ' L.>.K K 9.r 5 ].4.x 9 m >.:.(.3.q 2.K.9.,.*...' ' 1 z J H C.F K >.D.K u.>.K.",
"Y r -.M.q.E.[ J *.y.7.D J >.F n.B.L.h D M.p *.J.F 9 :.$.h.9.&.| 5.&.D i.#.F B.B.I.S > n.D.E.4.( %.&.5.5...' H e Y w 5.y.#.(.a &.",
"v h - &.2.&.J :., Y :.9.W.K a 3.K 9.' t 9 3.' K.B.a u -.b.x.P.Y :.z &.1 u.7._ y.j I :.Q.`.!.S.] 3.:.( 5.y.,. .N G t *Xi.p.*X' 9.",
"z v.XX7 6 F a &.K.:.N u..XA G h [ 9.' z Y j U.m.g w G m.2.| :.D / ' A.2.>X]._ y d.| A B.F.4.D a J Y r J >.A A <.' &.i.q.Q.Q.4.D ",
"j <.&.K F _ 6 6 :.e 9.:.2.3.K B 2  .a ( t A H m.g P 2.(.).).q.q.` 0 2.&.q.E.5.*.5.'.XXJ ..f.4.<.,.' ; ` B { 2.v.3.D E.q.S.9.K %X",
"G v.n.C.' 8.' a &.j J o Y &./.y.9.B.J.:.' u.t.F H S  .-Xq.q./ %.0 D 8.8./ / q.>.r 0.J b.i $.#.H @.9.(.8. .,.u.j p 2.8.` M.z H 1.",
"D D :.N.G ' 0.i.9.4.B :.G.; 1.K.8.D z m.(  .'.:.' 9.>.4.u. .a 8 r ;.;XD u /.s D D _ / r 7 U J 9.Y r /.%X:.c v.J 9 2.2.z ' w Y Z ",
":.' 2.%.U 2.a 4.F :.K :.Y K L.]. X(.D ' ,.'.:.h K OX:.D !.#.D.a %.z z M.S.0.m.%.J 8.E.>.c 2.-.' c OX} '.J - m.D w H J N.K H r.r.",
"7 t a y >.5 9 K Y K K K :.s j.`.@.@.x / ( i.t Y ' v &.Y D 4.F D t c 7 r ' 8.` &.l f :. .).,.p 9.j F ..i.,.*.~.-X3.J r 2.N ' ,.F.",
"n x i #.*XZ.j b.:.t.,._.9.m.| 0.M.v D /.M m F.A [ 9.v # K D E j 7 ;.XX` % x z z Q.2.K  .'.*.j 9.L.j r 2.9.8.D XX.X3.:.>.,.2 ( 7.",
"n.` [ S.Q.Q._ [ o.T.*.J oX2.F -.h.0.4.i.q.:.E.0.c ..Q.-.' 5.[ Y t z <.&.` ( D 5 z J Y <.>.:.>.2.G.K r &.U %.w P J.<.,.c K G ,._ ",
":.z *.:.4.9.4.s ) x >.p ] z 2.z y 4.q./ 0.' a | t >.a L.@XF 1.>.&.3.2.J.*.3.:.p T c A % h T J OXZ 0 t >.9.G @ A M.9.i.H ' Y :. .",
"1.J & a m.J.` *. X/ z F L.:.t z i E.[ E.0 D ' ,.' J b.5.`.:.* u.z A.' q.J J >.Q.,.u.&.Y K.D.J h P J K.i.` J 3.u. .).i.p a G.S.9.",
"A J A &.J m.n.m.:.8.2.z D L.K J / oX>.M.9.K K 9.C.z b...y.3.P 9.<.A J 9.&.<.D ` ,.( / F ' 3.9.a j :.:.m.D.>.:.:.K :. .S K -.~.F ",
"1.2.Y 5 E H J z 2.z ' a ' ' % ; ;.J D 2.z 2.7 J Y F K D i.K U ' *.0 v.h a x & F K F F J G.; 7 c q G.: : :.| K : P b.a 9 s J ' F ",
"C.9.n.w 3.:.:.p A A ' r A.9.w h ' D z :.r K .X<.K u.:.w K D -.A F &.J G S.!.F &. .,.3.K.~.>.%.P D :.: H N 9 j * c -.L.' 9.2.,.D ",
"D 0 G ' S.3.'  .3.A t ] 9.9.2.-.&.D :.' r 5 &.r >.i.A . A :.z >.` z &.r ' t +XOX&. .!.' z ;Xn.F &.1.b.b.E f H Y f z i.K.j.-.D ` ",
":.` *.Y :.' x @.:.a a @.4./ 9.z F.u.( ' 3.0 9.>.F F.K r J *.6 y U 9 4.C.U b.9.].Y - <.Y r z H f f :.#XA f g &.i.:.A h.].#.D 8.' ",
"(.q.,.5.v =.M.+.z r >.F &.z z G ' (.B.t K Y D M.*.a.@.[ <.l <.:.Q r w -.t 5.,.u.-.0 3.T ; = U u.H.&.J :.l I L.F.Q.0.J &.4.B D :.",
"B &.t [ 8.w t q.8.A.3.>.2.r & j a D &.0 a :.*./ 4.x &.2.:.b.<.j 0.-.r J.K a F K.9.j.>.A ,.&.J }.N.1 A { :.&.XX' 5.Z.D J  ./ a H ",
"` z w v a C.1.z F ,XB.D n.>.N F :.z &.' 3.D 8.' _ F G w g K 2.t 9 -.' :.OXG r ' ' q.5.,.4.' ] y.c 1  .F.K t [ q.OXA H &.W.).,.2.",
",.n.z >.D >.z 2.u.3.].D ' >.L.' r Y &.b.b.3.1 >.2.>.1 ; d O :.D z z :.&XY G t :.3.J J :.OX'.J.` q.,.i./.9.&.( _ | A :.a :.q.x D ",
"~.' 9.i.D J -.G F i.( u. .:.x.k w c G <.G &.J ,.0.>.2.E e N.A  .J j { 3.E w K 5.-.b.U 5 1.:.D 2.B ].B S.>.F !.4 ,.9.:.:.B 4.] [ ",
"8.oX4.*.D J ,.&.l :.9.0.0.'.1.A Y e z @ &.&.F >.#.(.b.V V L./.N.&.5 E K G.K 8.0.x z >.:.&.>.B z x ,.>.4.[ Q.q.M.] E.(.0.y / 4.@.",
"8.Q.F.; G D ,.z * - P H :.(.i.4.L C.9.3.].E.q.] B 9.A K B {.&.U F H I.> K ] 5.) _ - J 2.J m.Q.' ' r >.u ( 4.x 9.a s ' J 2.&./ q.",
"..u.C.C D #./ U [ ,.R X d P z G N 9.9.p.5.s } Q.( u F.' | Z.x r ] :.R f ' M $.0.p.<.<.G b A _ -.A.A r J *.S.5.y ' &.' J K K J.).",
"e h. .L.4.' 1.:.:.>.Y G T z G ~.S h *.4.S.A.>.5.q.4.4.@XM.x ~.).:.q @.l. .q.h.a.../ &.,.F 2.Y 3.u.c B ( c p q.m.G d c.R o s XX'.",
"r D <.K.8.C.N.Y A &.$XJ O &.' :.'.e h 9.S.&.m.-.@./ h :.` [ s oXj K :.5.` M.x _  . .2.r 9.:.>.A 0 t 9.8.&.x t J K l I 2.z ,.&.j ",
"C A b.: J b.I Y l g C..XN t S./.S H 1 A.>.g -.' v [ D 8.z ` >.o.v.' 3.K 8.*.4.k.D.i.5.-.z / !.J c i.n.T >.x l 2.G.L.J.'./ ' 2.l ",
"Y J 1.h r 2.g Y Y C.3.(.*X8. .K.g C :. .0 -.2. .J J Y m.0.s i.q.&.9.u.9.z / 7.g.B F q.' m.,.#X:.7  .p 5  .F : r 8.B G ' :.<.t = ",
":.) -.K p D.<.5 D 2.] ] ] q.3.D L h G.,.t.a 3.9.A -.h & a N -Xo.' m.D.J z a _ f.y.:.L.B :.9.n.K r *.A.>.>.D j H m.] %.<.G : B 9.",
"9.[ a &.T.` t q >.).[ s  .s ' G { F 4.@.Q.%X2.&.z z A.:.K n.!.j.7 z 3.j G U ' E.>.G H  .u C.b.z a &.m.L.B.:.,.D F 8.v T v.-.F y.",
"J E.J 1.9.r # ' ' 9.8.` oX*.x &.4.) w.O.q.b.U.| a w H z >.,.5.n.z D :.t # f D :.' t w z 9.K.n.S a v.A K b.&.Q.A.A.*.q.w * c.K i.",
"j *.A Y x h G c w # -..X&.4.:.&.q.0.T.a.( K &.:.J D K.:.J t A.4.~.4.F :.:.K i.5.z :.J J :.).> C r C.> X R J ' D.2.J 4.J g E x.r "
};
