/* XPM */
static char *_610623371746[] = {
/* columns rows colors chars-per-pixel */
"64 64 91 1 ",
"  c #0C1416",
". c #131C1C",
"X c #191F1F",
"o c #17201F",
"O c #172120",
"+ c #1C2425",
"@ c #1F2827",
"# c #1E2728",
"$ c #1F2A2A",
"% c #212626",
"& c #222729",
"* c #232C2C",
"= c #282E2E",
"- c #27302F",
"; c #28312E",
": c #262F30",
"> c #2A2F32",
", c #263131",
"< c #2B3434",
"1 c #2F3837",
"2 c #2E3738",
"3 c #2E3939",
"4 c #313737",
"5 c #323937",
"6 c #313639",
"7 c #323C3C",
"8 c #393F3F",
"9 c #36403F",
"0 c #39423F",
"q c #363F40",
"w c #393E41",
"e c #364141",
"r c #3A4444",
"t c #3C4846",
"y c #3D4748",
"u c #3E4949",
"i c #404646",
"p c #424C4C",
"a c #484E4E",
"s c #44514F",
"d c #454F50",
"f c #465251",
"g c #4A5454",
"h c #4C5956",
"j c #4E5758",
"k c #4E5A5A",
"l c #515757",
"z c #525D5D",
"x c #595F5F",
"c c #54615F",
"v c #565F60",
"b c #556262",
"n c #5A6564",
"m c #5C6966",
"M c #5E6768",
"N c #5E6A6A",
"B c #626C6C",
"V c #64716E",
"C c #656F70",
"Z c #657272",
"A c #6A7575",
"S c #6A7976",
"D c #6D7778",
"F c #6D7B7A",
"G c #717C7C",
"H c #73807E",
"J c #758181",
"K c #7A8585",
"L c #7D8987",
"P c #7D8989",
"I c #828D8D",
"U c #85908F",
"Y c #838E90",
"T c #869291",
"R c #8A9595",
"E c #8B9896",
"W c #8D9798",
"Q c #8D9999",
"! c #929D9D",
"~ c #94A19F",
"^ c #959FA0",
"/ c #96A2A2",
"( c #99A5A4",
") c #9AA9A6",
"_ c #A1ADAB",
"` c #A4B2B2",
"' c #A9B4B4",
"] c #ADB7B8",
"[ c #AEBABA",
"{ c #B2BDBD",
"} c #C0C8CA",
/* pixels */
"7rq73-3uuspreepye2ehuvCSMh$$,Vs59;ttp7t7<qqfeFGu:>dj::q:qqqqqqqu",
"3re7tt3efu79r76p9;,fjppfGN6<tc<;<59a6q36qqeqjgdkyddvd:,$qqqq$qpp",
"t7329f99usu<7<w<se;rbANfunNn9,9<30re<773<<ddfkfuwqwfZb#::qqqwkq#",
"aterhhutscbe=zM<5t3<qkde3rkNSbe,9re4eee3<du:uqyuju:qqMn,O#:qAqqw",
"et99hps9kEg9at777i5<33yvuubNNJJeqy3uddwqwr<w2q>qqqy2qruMfq#uwwqw",
"ipsspuc99_S19rr5070gdrMyzZkNkbTKuy<rrwygg26:22qqqyyquuqyvDuqfqqq",
"sszctsc91B'17191;*6trbGpubnururfdfr362pdwypq<qqwqqyggdyyujuyqqqu",
"scssssssss)U<r07557wyGzdu$fkuueqyMMdrwgwywwjgwwyqqeqkzyrfvuyugub",
"pscgchhgccg~m3722q3p!GvkdqguzpqddjdwuwwwyqqyujyyyqquwwdquvAjjuvv",
"0gcs0HcVHcsH'062:<gF/Rdjuydddze:ydfyqyqqyqudkuqqykdqqwwqq:Mqqqww",
"gtpchchc~RsgPGgywjkAI]Kjgdudfuu2yyjwwqqqqygyuquyqqqwq:qqqOwM#:qd",
"th9SchAHcTVcDBjrgAj(ACppydurhydgjwwwdwyquuuuuyuq3uvd:qw&qq:wq$qq",
";p/NsgcVkMgvyMBiFgPQvZzpuMgdubjuywqwqgwqwuyyyyjy3ukqqq&>##:qqqO#",
"RK!Q9tstNfeKjyKBKMNGbhbmyudvuBNvyqqwyj>:quyqryuyf3uqwq>qqq#:qqwj",
"hth{msshuMvfwiW}{GfkAzbpNukbgzCCdqdduq>qqqqykuyququqq>q>q>qwwvMv",
"29rV~hgg3fMdYKBdpNZcfNhkbkue<qdqrwqwq&q2:qqquqqque23q>ww>&wvdq:q",
"0s9<SHtguuJPPyuzuukZbkbkzkuqq2q2aa4457o47st<7007qq,$#:qqjjqqO:qq",
"g99ts~H$uEPfquuunzuNzuurer7ew23qa4%*;&84;s<;;*<<$2d:q# qdwdwqqww",
"pt09fc~E`JMhbNfzZqqbeNber3<<pq7:4=*<;857r0%5<***::qqqvq#qqwwqwfj",
"<599;sELZZkkueuuey,3u$Fz7su9&76255x0=a50r0<<1<o.#:qqwwwq.qwguqqq",
"tt9,U~VHZfrq**<<<93<qquPcai7r500>*=8l=>0584;6*<pdwqq$qqvl9rryyr2",
",hZPLcHmhhter<>ep<73,eqkImgast<*%*XXa8>5;56<4wba:##::Cw#g9ggqfqu",
"P[LHmKctrue<&p8as977e3qqslBa0rtr==%%X=>==%=746g+OOqDdqq#;rlAlB3q",
")VuhSfut;<<3<@48B937332etiaBtr5g6==&%==**=*%%6w>qqqMqqqqrhhBzbfZ",
"9kbkzjuq::,>4=%+7h*59;;<595tZB0*88*&5*;=:&>##>g zvg3qquqrgrgBNQP",
"Fughyyqq,,>2<%<<&sc51<9<;7pttipa47*&5r4>&#>>dwwda322q<dg<<fkPQ{)",
"`)kerqqq<*26;4;<4%il;1<<5rtt01ahi074555;#:2<:jCDa*qqqqqquZIzbNFJ",
"NPKuqq#$*<&rt;;<%;=<h<*$5tppa9<5larpsap*$:q2>>vPp+qqqjrGWAnudNkk",
"kuJJe3,:@@&;i***&=5**a31a995skrrtncchhacgr:27relAOrrnPJZNuuubbkv",
"kbkJZe##*%4&5l;&*;**;rhzr0mEUkis4aBcr57BC,2:2<26p5<aNQn2egkfkvhg",
"ekNbJkuq*<+*&a0+=8;;37tzF)_EBtgi0;riari9j3:$*<=77<shyuquuqeufNnr",
"uukbZueg9*=<=&a057aiscH))Vt,ps50ra5racDzdgy>+$0zg+i52qqkuqrqufZn",
"kdydZkd,qdq:$23pfeuuuPPbduyuwfjq19ppp0cAJkeufJJH3.,ueefu33ekfbfS",
"dqkdjjdMvbuujuyuufeeugJNdujuqddq59tiptglcJNkNbNNmt3e3NJNbuNfbNku",
"ddkvjdjbfquupfjduquefbkFjkAAuuuuptspppp0ufPPJNNHJJNbke3uPJZJPNku",
"dd3ydyvyqqqq3qjquuuufbfFnuDJMngupigp09rrckkJHNHZZJJZkfk,fPFFNueu",
"yyyudbbfyyy3qjuuefuuuqubJbbNffvgyrpt77rpcktcNKFNZJZJPPJJ:fZ33fq3",
"yqkjupqydjqyuqqquekueequzZbNzuuup7rqeriguuuuukJZbZJNNJJJJMMykuqu",
"qqduqyufy3qyqquuuuuuyuuuuuzfMAuuyqretttskukubuNFJJJJZNJJ(`NNuquf",
"bdjyqyypqqyquqyqquqyuufukkkkjJFeyrfppirsuuuuubgKJbbbbNbJD!/FkuNk",
"duyyqgeuuqqyuuqqquuqqququykjjkPGdugdurwfuuudkubPHmggghsa2$MPJkvb",
"qyqquqeuyqquyq33quqqququudkfruBBMddduqywduuuuuuJVVhspsr7qq#qKC$q",
"fqquueuuyqqyq3qqqqquqqq3jgeerufbMghdqqwquudyuuukczttr9trqq:qdFz3",
"kqqquueuqq2qe3q3qqqqqqqufw3duuuffjkyqqqyyuwwkuuNVut35000qqqq7vYF",
"Feyyuuuuqquqqq>qq:qqqquq7q3eppe9yyr<qqqyyqyduuNZsufut0stast93upR",
"QZue3uuuuddq:qq>qqqqju:q2qw3qttgCdeqeqwyqrdjukDZfcfcctttppstgumN",
"uJkkNNuuqqqq:qqqqqqqq:q23$7q*jIWdrqqqqryqdddCkgJHuuhcVghcsthgmnt",
"egJZbfeqqqqqqqqqq#:qqqq#6yzMAIApwyuqyeqruuMBNueZPmththVccgttt9uu",
"uuNJfchhmVzutuuusett33*euCWTnr70yyy3eeeffkPfedduPP9sstkNbtt9etet",
"kzbJHh9$9hSHkkukhgtuNFnADPrqrrptyyfkfbfkkPbqqyues~Nttssbsttte9ts",
"PPJkkf3399,tbZkusumTQDpZG7<rtptpfffkNkuePP22qqeq3cHcesbktssssfsV",
"JkttskHt,,9,tbZuZZTKzmepq:67pe7dfdfekbNNPNkkqqye9scsstthfstbmSHm",
"ttsfhbHkuueu3euNPJbn77i*<4;067rwyyyfubfPJNFk2ey39stteetfshbmhhSb",
"stustcbbKu3,$ubPbued50r0*27<tp6ruyeue3NPZZkyq33qt99ssshkkbbthhtt",
"tfetkufskNNkukuZzrtkr;&7<*<7g<3ge3eq,ePffbyyu33y9sssshhfssfkhtte",
"tthfhthkuuNPZuPJDp2e;&%=<6rgpwu<2q:qyFZufNkuyeuq3shtte3ufskhttth",
"ueuufueuuk3uPJbfr7*55i45wuyd3,2222qykbbykffeee3eke33eeefsfbttffb",
"ffffee3eukfufJSu99t;5l75qquqq33,::ufukkbkuee3ekfu33,3eeuttfkkftk",
"kfuuee3etbkfufZb9ts*%o0z:w3,q2322ef3fZNbbffeefe33333e333thktetss",
"ffuueuueteuukuukal9++2=5w&2$23:2yfbfFbbbZbu,qfu333,333etfsettttf",
"eueeeeeuuuubffuuph<097*o,y26:$3NNfNFkbFfjpkfqjq23eeee,eftfttetuf",
"ueee3euueukkuffe07npoo*;,P2:Jf#3ukZbd3ebbu2kvqyq3e3ufffffe3etuee",
"fuueeuufffbfbNufg9az1;&<hb4<eP33uZbeueekvnbyqq3quq,fbbkfe3eeteeu",
"uuuueeeufkuufu3u0hgaDB6twCg*,kbyfk3fueuy3:dddu32quuNbuufuee3eeet"
};
