/* XPM */
static char *e4255f745bf24e01b7a5c1e861138accnoJVI13VzIMxi8vp[] = {
/* columns rows colors chars-per-pixel */
"64 64 256 2 ",
"   c #483D3A",
".  c #4B392F",
"X  c #4A423A",
"o  c #55493D",
"O  c #5B4B3D",
"+  c #54453B",
"@  c #634C3C",
"#  c #66523E",
"$  c #4C4542",
"%  c #4A4745",
"&  c #524643",
"*  c #554B45",
"=  c #5A4C44",
"-  c #544D4A",
";  c #5B4E4B",
":  c #594746",
">  c #5B5246",
",  c #5C524C",
"<  c #57544C",
"1  c #564D52",
"2  c #555352",
"3  c #5C5452",
"4  c #5D5954",
"5  c #5C595A",
"6  c #4D5050",
"7  c #634E43",
"8  c #654945",
"9  c #635344",
"0  c #6A5545",
"q  c #63544C",
"w  c #6B554B",
"e  c #655A4D",
"r  c #6B5A4D",
"t  c #655945",
"y  c #735C4C",
"u  c #7B5D4C",
"i  c #725846",
"p  c #635553",
"a  c #645A54",
"s  c #6B5C54",
"d  c #655C5A",
"f  c #6A5E5B",
"g  c #655757",
"h  c #725D53",
"j  c #725E5B",
"k  c #775B53",
"l  c #6F4E4C",
"z  c #6B614D",
"x  c #74614C",
"c  c #7C634D",
"v  c #746143",
"b  c #6D6254",
"n  c #6C625B",
"m  c #6B655A",
"M  c #746354",
"N  c #7A6454",
"B  c #746A55",
"V  c #74645B",
"C  c #7B655B",
"Z  c #746A5D",
"A  c #7C6B5C",
"S  c #7C6954",
"D  c #7D705C",
"F  c #695F61",
"G  c #6C6362",
"H  c #6E6A64",
"J  c #696666",
"K  c #736562",
"L  c #7C6661",
"P  c #756A63",
"I  c #7B6C63",
"U  c #7B6E6A",
"Y  c #756C6B",
"T  c #7D7264",
"R  c #7D726B",
"E  c #777369",
"W  c #7A7573",
"Q  c #7D7872",
"!  c #5F6058",
"~  c #83644C",
"^  c #886B4F",
"/  c #836454",
"(  c #836B54",
")  c #8A6C55",
"_  c #836C5C",
"`  c #8A6D5B",
"'  c #87655A",
"]  c #956B59",
"[  c #82725B",
"{  c #8C735C",
"}  c #897459",
"|  c #92735C",
" . c #96795C",
".. c #A37755",
"X. c #836C62",
"o. c #826E69",
"O. c #886C67",
"+. c #847364",
"@. c #8A7464",
"#. c #847865",
"$. c #8D7A65",
"%. c #83746B",
"&. c #8A756C",
"*. c #847B6C",
"=. c #8B7B6B",
"-. c #937462",
";. c #947B64",
":. c #9A7D64",
">. c #937C6B",
",. c #9B7E6C",
"<. c #997568",
"1. c #837671",
"2. c #8B7671",
"3. c #857B73",
"4. c #8B7C73",
"5. c #8A7C7A",
"6. c #937D74",
"7. c #977C75",
"8. c #956A63",
"9. c #A57C67",
"0. c #A97B74",
"q. c #835D5B",
"w. c #AF875E",
"e. c #8D816C",
"r. c #9C8164",
"t. c #94826D",
"y. c #9B836C",
"u. c #968668",
"i. c #8C8274",
"p. c #8D837B",
"a. c #8C8578",
"s. c #938373",
"d. c #9B8474",
"f. c #9C8975",
"g. c #93847B",
"h. c #9B857B",
"j. c #958A7B",
"k. c #9B8A7B",
"l. c #958976",
"z. c #9D917D",
"x. c #97917D",
"c. c #A3846B",
"v. c #A48A6C",
"b. c #A98768",
"n. c #B48869",
"m. c #B5946C",
"M. c #A28574",
"N. c #A38B74",
"B. c #AB8C73",
"V. c #A3857C",
"C. c #A38C7B",
"Z. c #AA8D7B",
"A. c #AA8473",
"S. c #B38C73",
"D. c #B58E7A",
"F. c #B78773",
"G. c #AB9275",
"H. c #A5927C",
"J. c #AB937D",
"K. c #A99676",
"L. c #B49474",
"P. c #BC9374",
"I. c #B3947D",
"U. c #BB957B",
"Y. c #B59A7E",
"T. c #BD9C7C",
"R. c #B79B75",
"E. c #C59A7A",
"W. c #C6906B",
"Q. c #C6A37D",
"!. c #D1A67C",
"~. c #C7885F",
"^. c #958B82",
"/. c #9C8C83",
"(. c #998986",
"). c #9E9283",
"_. c #9C928B",
"`. c #9D998D",
"'. c #978E8C",
"]. c #A38D83",
"[. c #A68D86",
"{. c #B28E85",
"}. c #A49383",
"|. c #AB9584",
" X c #AD9A84",
".X c #A4948B",
"XX c #AB958A",
"oX c #A69A8B",
"OX c #AB9B8C",
"+X c #A79A87",
"@X c #B39483",
"#X c #BB9583",
"$X c #B49B84",
"%X c #BB9B84",
"&X c #B2958A",
"*X c #B39C8C",
"=X c #BB9C8B",
"-X c #A59A92",
";X c #AC9C93",
":X c #A99895",
">X c #B39D93",
",X c #BB9D91",
"<X c #B39E9A",
"1X c #BCA284",
"2X c #B4A28C",
"3X c #BCA28C",
"4X c #B3A382",
"5X c #AEA294",
"6X c #AAA295",
"7X c #B4A294",
"8X c #BAA393",
"9X c #BCA995",
"0X c #B4A29A",
"qX c #BBA59B",
"wX c #BCAA9C",
"eX c #B6A999",
"rX c #BFB39D",
"tX c #BCABA3",
"yX c #B7A6A1",
"uX c #B7AEA5",
"iX c #C39C83",
"pX c #C69A85",
"aX c #C79A8D",
"sX c #C5A484",
"dX c #CBA284",
"fX c #C2A38C",
"gX c #CBA68C",
"hX c #C8AA8B",
"jX c #D2A689",
"kX c #C2A593",
"lX c #C4AB94",
"zX c #CCAD94",
"xX c #C4AC9C",
"cX c #CBAD9C",
"vX c #C8A496",
"bX c #D4AE97",
"nX c #C4B19E",
"mX c #CCB19C",
"MX c #CAB393",
"NX c #D5B69A",
"BX c #CEB08D",
"VX c #C5ABA5",
"CX c #C5B1A3",
"ZX c #CAB3A5",
"AX c #C4B3AA",
"SX c #CAB4AA",
"DX c #CDBBAA",
"FX c #D3B4A4",
"GX c #D5BCA7",
"HX c #CAB7B2",
"JX c #D3B7AF",
"KX c #E1B99F",
"LX c #D5C1AB",
"PX c #D5C1B7",
"IX c #E5C7A8",
"UX c #E3C7B9",
/* pixels */
"2 2 a M K.MXN.[ E n d E Q < H P T m H W J a j.z.[ R H *.z.4 5 n l.t - 5 6 < a.T Z $.{ $.^.J 5 5 6 H ! 6 - , 3.T - X % % Q 4 % 4 ",
"S M #.v R.MX4X#.z T #.i.e., e b m m m G 4 b ).l.( =.e.} H.b Z T [ M a m 5 , s.e.C } c >.OXp.P b < , Q i.d m i.m - 5 % X a.B > T ",
"4.j./.4. Xz.5X`.#.5X}.).oXl.i.`..Xj.k.=.).2X9X4XY.+X).H.2X+X5X X}.(.5X.X0XOXf.C.4.f.s.f.oX5X:X;X4XJ.H.5X-X^.^.i.*.j.*.e.l.l.l.=.",
"4 - 2 b j.e.b T V n n P E H m a.C R %.E ).oXD T $X#.b B D A =./.d a n d 4.x.D Z H < e 3 4 d e 3.T.r.} r T T * a z R Z m 3 ; 4 5 ",
"- 2 - - 3.e o * , ; , 3 n a f ^.9 V q O a.%.b q M A T , I M =.XX- - n e T j.t 9 * X - 4 3 > o I b. .( z s.E o   M A A b d f f 1 ",
"C +.+.B /.].1._.m n a X m a.j.5Xs.l.j.e.7Xj.3.3.e.e.l.Q #.c $.2Xf.C.d.H.H.f.=.f.>.=.4.3.*.&.$.C.:.} >._ z.}.3._.d.d.d.d.[ =.=.N ",
"I.1XK.T.3X4X XrX^.m n a %.*X X[ 2.4.6.(.&.i.C .X}.l.e.j.i.B.G.G.k.t.>.>.>.M t s.lX@.V Z 6.s.#.k.+.S A >.>.#.e._.J.,.M.2X| { J.$X",
"V b B [ $.( t.C.a & ; K 7.+.i N 9 B M B $.$.} K.i.+.s f P B.b.@.N y B , n : - p.mXN , X I 4.o a I b . #  .( t h.u.=Xy.N N.k s M ",
"- + q s B B @.C.m I Z.c.N.].s p a s T i.y B s.3X-.O.K f #.G.n.n.r.:.c.,.` ) ( f.H.x b a L H._ s +.C / ` A A r XXB._ ' ( G.O.: q ",
"}.+Xf.OXwX].+X9Xk.#XpXaXVXFX=X|.%X X>X|.3X=XH.wXz.l.4XQ.U.NXzXfXMXzXzXNXGX%X%XfXgXU.J.=XZ.S.Y.|.>.d.M.A.Z.,.h.[.V.d.<.7.N 0.&Xj.",
"s.&.OX7XLXzXBXbXlXQ.NX>.h.I.sXMXiX@.R d s.>.f 5 4 *.v.R.Q.jXNX9XB.%XI.v.NXBXP.E.!.E.pXfXpXF.9.7.F.F.E.F.D.O.M h O.q.8.&.' 9.3Xx.",
"a o o 7 C.fX..w.} v.N.p $ [ B.3XZ.B 3 n &.B : 5 d V O.{ G.BXNX%X:.:.) y 3XNXU.P.S.D.<.' <.0.aXZ.] F.E.9.<.-.C C l k q._ A <.N.t ",
"4XH.A I >XXX7XkX[.k.%.W Y l.XXVXaX@.{ ,.J.Z.C.{ y.M.>.@.=XPXJXCXXX7X7XoXCX9X=Xc.B.=X].,.9.n.E.gX9.F.pXpX#X#XaXzX%X=XM.Y.cXvXOX*X",
"wXOX;X;X-XAX5XDXHX9XOX;XVXmX8X:X].|.d./ >.N.I.lXG.R.m.R.J..X.X1.4.g.%.1.V M _ $XNX>. XzXjXjXpXpXpXjX#XU.GXlXY.NXU.>.lXG.1X{.^.9X",
"6 1 $ ; X.I M B l.A N 7XLXB./ B M I > T A @._ H.[ } m.w.N.2.3 ! e e * U G > . `.( = s B.pXT.P.m.n.9.U.I.| # y.LX .| I.y ,.vXh * ",
"< $ * s g q I _.`.3 U %.SX&XX.P b.C.f _ 9.^ ;.XX` ( { } 7X&.n a a R d f G ; 3 uX=Xb Z Z.bX=Xt.N.Q.BXP.G.@.x 3XcXI.L.S.=.0XFX@.- ",
":Xh.h.k.H.].5XZXAX.X/.-XyX<XyX9XxXVX7XXXVXxX=X3XN.&X7X8XDX7X8XwX2X7X2XOXOXOXXXSX0X).5X=X=X2X8XCX&XxX<X*X9XHX9XXX<XvXkXkXkX=X[.:X",
"3X8XMX@X3XN.@._ G p C i A I ; ^.J G G n ].DXGX$XG.IXNXGXJ._ |.rXv.y.G.r.I.J.( ( A B x M.V.r Z h.r w _ / ,.9.` ' l ] 0.u <.,.-.wX",
"J.} $X4X3X@.k h 8 q.9.n.W.A.' 7.5 2 6 1 I *XJ.IXKXdXNX%Xy.$.f.8Xr.v.r.r.J.kXi i i 7 A [.@.9 = /.L : N C >.fX' / -.A.n.9.9.<.c.>X",
"DX=.A A ]./.%.o.9.pXjXjXU.#XcXxXp.b I L g.=Xd.2XfXI.C. XZX_ @.[.;.G.f.{ 4XnX}.}.|.>XwXXX|.X.g.tXXX7.H.}.8XJXtXOX=X%XvX=XkXc.B.nX",
"oXg./.k./.5XXX9X8X X$X].:X<X_.`.z.h.h./.:X7X0XSX}.C.SX;Xh.XXd.N.$X%Xv.y.J.t.f.DX5X/.].OX|.SX8Xk.}.G.>.fX2X@XlX8XXXZ.M.V.C.kXC.OX",
"O.u _ @.y ;.{ ;.M.@.[ M U o.; g p f 4 G n 3 4 j.I T %.%.+.y.~ ^ ~ 9. .| ) ^ ^ @X3.7 A s &.cX_ i C S i m.b.b.n.W.oX# 0 e g.xXS B ",
"N [ $._ u ( ( y.C.$.S r I I > ; - % p a , ; a i.N C 9 o +.>.c | |  .r.| r. .r.1X/.k @.d.H.GX[._ V h ' :.m.S.m.pX/.i @ o 9  XC.M ",
"f.*.i.s.j.k.}.2X;X}.C.h.<X:X7.7X0X0Xp.0X0XXX].kX].XX(..XAXqX8X=X=X8X|.2XkXZX8XxX9XkXcX8XxX,XZX7X.X[.y.H.aXY.|.3X>Xd. X].XXlX@Xh.",
"HX4.U h.].8X>XI %.2.V >.=Xy.t.B .X;XI n V +XC.s j 6.b C ' 7.&.X. XX.r %.s XX0.' -./ &.X.k 8.' <.}.{ ) c 8.GXgXjX,.} sXA.O.%XB./.",
"tXd $ a 7 &X.X; > M } @ w C s q s.6.: X p 6.d.M 0 l l w O 9 7 8 h.y 0 A @ &.@.k k / / q.k w l [.XX0 _ y _ VX#XpX9.Y.w.E.iXT.m.>X",
"AX4.n a L yXtXB L %.X.A +.M t.>.AXPX^.j 7.,X,XN.N.M.D.C.6.&.X.X.}.>.O.@.@.H.XXk.|.xX&X X,X&X<XHX+X9 0 @ &.7Xd.A.<.7.D.A.B.C.A.VX",
"VX0X9XeX2.{.=XfXlXSX0X0X6XCXHX/.H.:X[.7.C.&X*X}.=Xd.s.7.7.]..Xg.].h.+.=.h.k.k.C.>Xd..X].C.8XZXUXC.@X|.k.@.7XDX9XqX5.(.7.g.[.,XcX",
"{.l j &X<.D.E.dXGXH.V s = t.].8 } [ S x y c w a 2.- $ , : C &.+ A s o + + e h u +.V ; < n =.I.fXgXaX@.$.A M a V +XI - q 9 g.[.S.",
"aX{.l ].pX!.pX` +.XXr o o C y.c / u D [ t S a : W ;   & % m U . 9 e , p , C C y k., - - $ k fXKXfXU.d.@.+.X.q V k.w 9 [ ^ ,.2.0.",
"Z.VX<X6.=XgXcXXXCX9X X}.4.XXqX,.,.>.%.4.A +.2.g.5X.Xo.j P ^.(./.i.6.k.Z.C.k.s.].VX;X(.g.g.}.SXxX$X8X;X6.}. Xk..X>X[.7.g.>.[.<X0.",
":Xg.B T j (.<X*.6.X.&./.f.>.>.,.lX).n J G &.s./ ` _ A a V X.Z Z 0X,.A.F.U.cXOXZ U I =._ +.&.P 1.<XI a P A >.*XA d.c.%.5.o.%.H i.",
"R n 7 %.s %..X: e = + # ) ~ ^ | d.s % % $ j &.@ u k 0 O 7 9 = w $Xc.gX9.E.bXlXc V 7 M. .O M p V XXX.a s a / h._ @.O.C 2.K K a q ",
"p.K , a V E tXn L Z T 7.@XfXU.Z.oX4 X *   9 I P _ +.[.2.I I A s.xXFXcX#XD.,X&Xk. Xv.sXK.A E R R [.g.K I T +.].k.s.2.I -Xp.K C 2.",
"0X>X].7.>XSXqX<XVXqX;X>X>X8X0XOX(.1.>X>X=X,X0X/.yX0X_.'.(.^.yX7X].].<.Z.=X>XqXqX}.8XN.C.j.:X`.'.}.0X4.Q 2.%.g.5.g.^.U 1.(.(.tX<X",
"6.o.q.O.O.7.O.X.6.4.w a b s p.> ; : I _ ' >Xh : /.%.  < - s OX&X<.` ` @.S } f.# U 1., I s ].[.&X@X6.> p j q a q n 3.- * f j L 7.",
"; p I U p ; a ; 3 p.a > q p ].k   Y Z - -   ; : 6.%.- 3 % p XX X%X0.| N.M.M.2Xc I XXV C X.FXxXN.d.XXI : K f p p G 5.: - ; U s 7 ",
"(._.U 1.U %.K U 1.:XU C j 4.>X].j 7.%.P W Y I A /.k.K f n I ,X>X=X,XxX7.s.C.Z.@X,XCX}.OX/.<XtXp.$XXX/.5.5.1.1.K g.(.1.R 1.U 5.^.",
"0XyXL L K s .Xg.X.:XO.g G f a 5.%.XXXXh..X1.<X,X%.U 1.G K Y K L h.<X&.I 6.V XXVXxX&X&.E U U E G M.s.4.Y d n p.m G 1.n G -XR 5.-X",
"s _.1.K d d 0X%.X p p 1 % 6 J F G eXJ._ s s 5X=.; p & 3 d 1 - - I /.* a > * i..XH.Z B B A [ D a.4X#.m m m d p.< < n a U Q , K p ",
"/.oX_ D #.e.oXk.P 3.T #.R n H d 1.7Xe._ A +.HX/.3.P P m J a.R b 4./.s n a * D ).1.C T T >.[ $.lX3X2XM e.v.u.oXW Z +.%.4.3.Z R 4.",
"7X2X9X5X}.).OX5XOXOX}.j./.oX;X9Xj.k.l.i.6.j.l.+X-XOX&X$X Xz.+XoXg.p.*.4.3.3.j.a.3.oXp.*.5.5.C. Xs.}.Q p./.k.j.j.R _.).p./.a.j.).",
"z.D N.t.b b A +.D }.T p f n B k.+.C I > p p q a 4 P 4XB.{ S b P G Z > R Z Z , > > R > 6 5 $ E s.> m H H a d I z m 3.n Z A #.M V ",
"oXM x B &.n w B b oXP % p G w l.k y > & - % p 7 - e t.:.( x P Q q = > #.+.Z s f V Q & 5 1 1 K &.o 3 o % < % , M , ^.2.t Z z q M ",
"7Xe.l.s.s.=.=.$.S 7X Xz.k.C.}.C.b.v.} =.^.g.&.e.=.d.J.{ { $.t.*X4.k.k.>.u.C.@.&.7.6.@.N.t.>.C.2XoX7X.XP Y 4 3 :X>XOXk.k.x.j.*.g.",
"B 6.>Xk.a.a.=.t.%XP.Q.T.m.hXE.n.Q.T.1X}.s e +.f.A h.@.B A M t.-.I +XH.H.{ @X|.u w S 4XG.K.G.4XG.G.|.}.s ; ; Z k.y.@.r =.T 5X4.e ",
"=.d.f.T b s M >.m.W.E.Q.P.Q.E.w.pXgX;.} s : = ].= > Z Z o o _ ;.s A s.@X$X~ :.{ 5 ; a a t b V A } k.R & C ` t.6.w M r w A 6.#.M ",
"_ 2XH.A E K P /.n.m.m.P.P.E.R.b.n.n.b.c S b M j.g.B ( ) c } ` ~ n 4.qXN ' c ,.c.n V s q 9 C } [ @.).p.C I.S.Z.9X4.M K I +.|.$X;.",
"K.7X/.C.T.sXT.mXgXzXgXzXzXlXGX+Xd.$X3X%XZ.&Xd.@XVX2XH.N.C.h.V.k.y.A.#X=X] A.,XD.@XeXeX8X7X5XPXtX@XMX@X%XkX=X,XcXcXlXkX*XXXz.5XH.",
"n p , k.vXiXL.sXFXNXv.Y.I.c.$Xt.I T =./.`.6X4.b } t.,.>.*.b >.iXU.P.pXlXhXgXgXpXNX2Xb A T e.3XFXQ.dXhX4XNXd.C t.P.hXT.>.V m 3 G ",
"p , e j.d.) | R.NXvX:. .;.i y._ h _ N A r C P q = [.X.: 1 - k E.pXjXb.r.L.b.Z.E.jX Xe s o X C $X9.9.) ) &.C   p y.$X9X@.> q n 7 ",
"Z.f.=.J.Z.;.C.PXJXDXwX2X8X+XtXOX].d.| @X@X,.,.A.A.cXZ.V.C.N.{.bXgXbXU.y.G.U.ZXbXkX5XeXxX}.u.7XAXlXLXZX7X:X5.^.:XeXwX9XC.|.$.>.B.",
"B.3X$XM.R.1XJ.oX_.3.E 4.R R E G B h.JXN.N.3XsXbXgXpXsXiXdXpXNXnXJ.NXzXy.U.%X}.kXX.P 1.1.p.4.g.`.k.).eX5Xk.+XDXnXD.Z.c.M.$.}.7Xy.",
"^ f.s.{ r.w.r.f.p d a a - G Y ;   K }.O 7 { vXU.iXS.n.n.P.S.d.q x NXS.( b.| B lX<.& % $ % - s s m m p.V w s.xXxX( y i ;.0 @.C.c ",
">.H.=.x  . .J.].s s n I I a P s 9 (.ZXO.C >.cXcXr.A.U.bXT.I.v.( k.NX%X@X%X,..XFX#XI g g 3 e M M U -XHX%.1.5.>XJX^.j.].*Xs.,.Z.:.",
"kXkXN.C.lX2XDXuXqX9X7X7X7X>X>X*X+X9XZXk.].tX.X=X2XSX;X<XkX X8XCXVX&X&X0XkXvX<XaX{.;XyX,X7X}.>X0X|.=X7XoX4.g.(./.(.<X<XOX}.).2XlX",
"NXBXA.FXGXNXZXO.=.mXG.b.r.c. .nX' I A V C [  Xy s 7.I = M _ ' @X' ` y ~ 0.^ ` 0.@.V.V.$XlXsX1XB.' L p : j ' _ 2.0 X.Q 2 d f C.GX",
"Z.FXGXNXY.3X$.a.+.xX;.v.v.r.N.3X{ 0 h w i c.M.y & %.s.7 0 O.N wX9.u @.9.F.9.<.9.>.{.C.&.N.v. Xh./ y O ~ n.W.~.~.V.7.U 3 f C ,.C.",
"M.8XkXxX$X&X XJ.+.|.y.G.G.;.f.DXY.C.;X7X3XkXG.h.&.0X9Xf.C.OXH.DXAXqX[.7XcX=X8X{.|.|.qX/.#.=.=.yXp.(.-XtXbXgX=XlXkXJXtX2.4.h.].h.",
"].CX*Xd.qXtXz.Y.V.y.$X@Xv.v.;.y.=.CXwXk./.}./.tXxXd.s.|.>.N.lXI.1X#X8X>.,.M.y.=XC.+.#.=.+.d.=.^.J.H.*Xd.d.6.5.'.1.U p.g.%.;XAX(.",
"g %.$.S A =.j (.~ ^ ~ ) :. .) ) N f.f.# V L M 2XI.w h +.r :.T...b.F.=Xx 0 # [ 8X>.0 A +._ _ S _ ;.| v.) | _ y &.a ; > , s o.%.p ",
"; %.+.A s = j ]./ ` | :.v.` ;.v. .@X9XC { c.C.xXaX-.N n A @.b.W.v.U.8Xb r o > p.7XN x B [ $.c N @.=.|.y.#.A M k.f n V a s 2.%.& ",
").;X<X^.oX+X7XxXXX8X7X X7XXX*XxXbX=X9X>XxX3XkX=X8XxXOXk.k.H.=XG.G.E.,Xj.}.|.H.7X,X9Xl.6.4.g.}..X}.oX*X.X/.(.OX7X(./.eXyX.X}.;X[.",
"Z a V T K.lXH.&.%.V E 4.E e P R 5.A I P Y K g.k.*.&.@.s.k.e a W ).X.d m a s =.=.>.,._ I _.1.Y J 5 J H 4 2 4 p.I % & % 3 R a - H "
};
