/* XPM */
static char *_c2f4b2f824044aed4c7960077a41394I2vAnUXhFuCVrOxV[] = {
/* columns rows colors chars-per-pixel */
"64 64 141 2 ",
"   c #AEAEAD",
".  c #B2B1AE",
"X  c #B5B5B4",
"o  c #B8B7B4",
"O  c #B7B8B3",
"+  c #B9B9B6",
"@  c #BDBCBB",
"#  c #C0BFBD",
"$  c #BFC0BC",
"%  c #C1C1BE",
"&  c #C4C4C3",
"*  c #C8C7C5",
"=  c #C7C9C5",
"-  c #C9C9C6",
";  c #C6C7C9",
":  c #CCCCCB",
">  c #D0CFCD",
",  c #CED0CF",
"<  c #D1D1CF",
"1  c #CECDD0",
"2  c #D1CFD0",
"3  c #CFD1D0",
"4  c #D4D4D3",
"5  c #D8D6D6",
"6  c #D6D8D6",
"7  c #D9D9D7",
"8  c #D6D6D8",
"9  c #D9D7D8",
"0  c #D7D9D9",
"q  c #DADAD8",
"w  c #DBDBD9",
"e  c #D8D8DA",
"r  c #D9D9DB",
"t  c #DADADA",
"y  c gray86",
"u  c #D8D9D9",
"i  c #DADCDB",
"p  c #DCDCDA",
"a  c #DDDDDB",
"s  c #D9DADC",
"d  c #DADADC",
"f  c #DADBDD",
"g  c #DBDBDD",
"h  c #DBDADF",
"j  c #DBDDDC",
"k  c gainsboro",
"l  c #DDDDDD",
"z  c #DCDEDD",
"x  c #DEDEDC",
"c  c #DFDFDD",
"v  c #DCDCDE",
"b  c #DDDDDF",
"n  c #DDDFDE",
"m  c gray87",
"M  c #DFDFDF",
"N  c #DBDCDC",
"B  c #E0DEDF",
"V  c #DEE0DD",
"C  c #DEE0DF",
"Z  c #DEE0DF",
"A  c #E0E0DE",
"S  c #E0E1DE",
"D  c #DDDEE0",
"F  c #DEDEE0",
"G  c #DFDFE1",
"H  c #DEDEE1",
"J  c #E1DFE2",
"K  c #DFE1E0",
"L  c #DFE0E2",
"P  c #DFE1E0",
"I  c gray88",
"U  c #E1E1E1",
"Y  c #E0E2E1",
"T  c #E2E2E0",
"R  c #E3E3E1",
"E  c #E0E0E2",
"W  c #E0E1E3",
"Q  c #E1E1E3",
"!  c #E2E2E2",
"~  c gray89",
"^  c #E4E4E2",
"/  c #E5E5E3",
"(  c #E2E2E4",
")  c #E3E3E5",
"_  c #E4E4E4",
"`  c gray90",
"'  c #E5E7E4",
"]  c #E6E6E4",
"[  c #E7E7E5",
"{  c #E4E4E6",
"}  c #E5E5E7",
"|  c #E6E6E6",
" . c #E7E7E7",
".. c #E3E3E3",
"X. c #E6E8E7",
"o. c #E6E8E7",
"O. c #E9E8E6",
"+. c #E6E6E8",
"@. c #E7E7E9",
"#. c #E6E6E8",
"$. c gray91",
"%. c #E9E9E9",
"&. c #EAEAE8",
"*. c #EBEBE9",
"=. c #E8E8EA",
"-. c #E9E9EB",
";. c #EAEAEA",
":. c gray92",
">. c #ECECEA",
",. c #EDEDEB",
"<. c #EAEAEC",
"1. c #ECECEC",
"2. c gray93",
"3. c #EEEEEC",
"4. c #EFEFED",
"5. c #EDEDEF",
"6. c #EFEFEF",
"7. c #EBEBEB",
"8. c #F0F0EE",
"9. c #F1F1EF",
"0. c #F1F1EF",
"q. c #EDECF1",
"w. c #EEEEF0",
"e. c gray94",
"r. c #F2F2F0",
"t. c #F1F1F3",
"y. c gray95",
"u. c #F3F3F5",
"i. c #F4F4F4",
"p. c #F6F6F4",
"a. c #F4F4F6",
"s. c #F2F2F2",
"d. c #F9F9F7",
"f. c #F9F7F8",
"g. c #FBFBF9",
"h. c #F9F9FB",
"j. c #FCFCFA",
"k. c #FDFDFB",
"l. c #FEFEFC",
"z. c #FFFFFD",
"x. c #FCFCFB",
/* pixels */
"& : < * * - 4 < : % * % % + q 7 : < * - % % < 7 % > % % * w S % o % < * - 4 e G k Q 5 o % q @.q.4 4 1 : : 1 : : 1 : = ; ] * % e ",
": : - = < : : , < : : < % % < 6 < 4 : % - q x : # < * % : ] - X o + - > e ] v e v U e @ % 7 <.U : : : 4 : 4 4 : : 4 & : p * e $.",
"4 4 - & < : : 7 - @ : < % % < 7 < < - < S x 6 @ # * - - B : . o . % 6 B S x v U v v v & % x ,.8 4 4 1 1 : 1 : : : 4 = = 8 4 4 X ",
"- q < @ * * - 4 < + < : < % < < : - * w S 4 - + # & % q * . . # @ : < p v v Z L U v v = % o.` 4 : 3 : : : : 4 1 3 : : : - & : 2 ",
"+ 6 x & * * < x w @ , , < * : * % : % q < < < - + - 4 : X @ > - # < , : 8 v S v S v S : & 2.8 : : 1 4 : 4 : : : : : - - w x q e ",
": q x < - % : 6 w * * < : , * * * , % 7 : < 4 : * # ; @ : 8 > + + 4 v : - < q v v v U > : ;.: 3 4 1 : : : 1 4 < 4 v * % > 4 U q ",
"- # & - : = < q w < , < * , = % < : o 4 < < < : * : A ` U 8 @ % @ 8 ` ; : : , , 0 e v 8 : v : , : : : 4 4 e v S v v % % : < v S ",
"< o @ - : & - - - : - - * - - * 4 - . : < : q : . * S ` Q 2 : # @ 8 2.: 4 : - : > : x 8 4 : < , 4 4 8 v J v v x x q - % % 4 v U ",
": - * , - @ & . % , - < < $ & 4 < X X : 4 v L 8 o $ x o.6 < < % @ 4 9.- @ = * & % * $ = > < 7 q r G L j q v Z Z e v : @ ; 8 J Q ",
": x % - % . @ : < * % < * @ : , X . @ , e v G r O % ^ ^ 4 - < : + x [ @ X X   X   O @ & < 7 q S G v j r L U L e v v : % ; e U ` ",
"q S - * @ * - q : : > < @ X & @ & % * < v x k U % - S q 8 4 < < & q : . + @ + * 4 q x - 7 < < < 0 r G v j G G G v G < @ : v @.@.",
"] o.- : : = < 4 % : : + X X : : : = % - 4 8 5 v = = ] < : : < < : : # & : 4 q x 8 v 4 @ 7 V % > 4 8 r G G v G J v v 4 & : G Q @.",
"* ,.4 * 5 @ < < * - * @ & % 4 @.- % & , > < e v < - S < < < < : ; > 8 v v x v e e v : + q O.: - : : 4 8 U U J k r G 8 @ 4 U @.@.",
"@ A ,.$ = * : - * % < , = & 8 e : % * < < : < : 8 : q 4 < < - % : r O.v e x q e q 4 + + 6 9.8 : : : : : 4 p v v r r 5 & 4 ` <.=.",
"q : ] < $ = & q : @ 4 : @ @ 8 4 4 : * & & $ # & = 4 4 : % % + - 8 4 ;.e e B q x Z - @ - < O.U : > : : - - : 8 e e e e = r ;.Q r ",
"- 4 4 x * % 4 k.o.% : > = @ 4 8 : 4 : @ X X + = : A : + % @ & ` 8 % e.$.x S 8 8 < O % w 4 ;.9.: % : : : > : : : e e e : G @.8 & ",
"6 % + : - : - S g.% > < : % < < < < 4 = 1 x x U : 2 * & # % e <.- $ ;.9.e : : : : % @ & : @.i.: % % % - : - , 4 4 : 8 4 r : = : ",
"9.4 < = - < : : 8.4 * * , - > < < - < e v e x e & 2 : # & 4 ;.) # & ` ` 4 = : - ; = & + e y.8 X O + . .     . O + % = : U v J U ",
"* g.< * * - < : < V : - : , - , = , : q ` U U & + 4 * @ 2 ` $.r o & U e : = , : 1 : : @ e v X X O + # + & = : , 8 q 4 4 y.u.g.u.",
"4 g.] * < = + % % < > < > > < > : e & 8 Q e : @ % * * : v ;.` 4 X * 8 : ; : : = : & < % : : @ < 4 q q w C Z Z L S q - = ;.<.y.q.",
"x p.k.7 % @ : q S 4 < : 4 - : * 1 r % r e 4 : & $ = = e q.i $ . . % : = : , > , 4 8 x * : S [ ] P ^ L C C q i i x : = ; @.2.q.i.",
": ,.k.S ,.9.q k.,.4 4 , x * = : Q 4 + 4 : 4 4 : O & j j & X X + o % < 4 x e v Z r Q 4 O = Z ` v L q C C C C L C : % ; : ` <.<.u.",
"x ,.q : k.: < k.: - : q q @ : U q.& X 1 : : : : = , : ; ; : 4 q * < k v ] v U S v U < . & q ` 2.o.C q j 6 6 3 3 + # = : Q @.2.Q ",
"] S S < 4 % 7 x * < < ,.: X : ` @   + ; : 4 4 8 = - C P L L Z < % * 4 8 S v U V U Z 6 @ * x ` 2.;.6 , : - : 3 1 % % * ; G @.q.1 ",
"4 4 S q , * < S - : e & @ @ : & & 4 * x y.U U : X @ v U v U * % + 6 6 % 7 B S S J H H % % G ;.q.0 3 : : : 1 : 1 : @ & ; J 7.J % ",
"< < : B d.< < q q - ` ` 2.: Q <.S , * , U ` J 8 X # e U @.0 @ + + 6 S - < < r U J k J & & ) 2.@.1 1 ; : : : : : * # % : ) $.: # ",
"&.: 7 S O.: < k.v & d.z.e & 2.g.< % * - 4 U U e + * e U ..4 - + % 6 S - : : 8 p ~ k ` - & <.` 8 : : : 3 3 : : : : & @ & $.J @ & ",
"< g.>.: + - 7 &.v & ` e @ & v i.= - - , , 4 B v @ @ ] U 4 : 4 & + 7 8.- : : - : 5 e ~ : ; e.Q : : : : : : ; ; : : : & ; 7.1 @ & ",
": >.< % * < : < y.: v = : & U U * : % 4 8 : 8 e - * o.i - : 4 = @ S g.< < : : < > 4 e : 3 ` 3 - 3 1 1 : : : : 3 = : & : k % : r ",
"w 7 A * < q < < S 8 4 > ; @ J : * : : : 4 1 : 8 4 - 0 : : : ; , & e ] % * % * - - : 4 8 j j ; 3 : : : : - , : - : 3 @ : e 2 J $.",
"- &.w % 6 $ % * = e : : : ; 4 : : : : @ @ & & ; : 4 : - 3 , ; 3 - 4 : X + X X X + @ & = 3 : - 3 - , 3 3 , 3 3 : : 1 = : 8 4 : ; ",
"A S &.w A w < w G v 2.` 8 4 B U e : : 4 : : : 4 : v U ^ C i s - * 4 6 < q 4 4 8 < < 4 1 4 8 P C P C L C L P P v L G L : 6 q e e ",
"] A q < g.>.q k.z.q q : % q S : @ * v 5 v Z L o.5 B ~ > * & @ % x 4 L j L j L j r e e : 4 4 8 v v v v G D J J J ) J : & : B B r ",
"- : : 4 p.* : k.,.& @ + < w X @ @ S 8 8 x v Z ..% w & + + + & J w : =.e v e q 4 G r e % 4 4 2 4 v v v r D D k r D k = @ ; e v e ",
"< < : 4 * % 4 ] : : @ & 9.< @ @ : a.& e x v G 3 % q % # # & k q.< = 4.G L D L C 8 D 1 @ e v : : e e v v k r r r r k & @ * 8 x v ",
": - & = + % * < * * + O.9.+ # % 7.$.X S v S L ; # - # # & k Q @.: % >.Q D i C q s 8 & @ 8 2.= : : 4 v S D D k D r v & @ * 8 J U ",
"] S >.S v : : * @ @ : p.: X @ B f.4 X 8 : 1 : + % : # # 8 <.@.;.& @ L <.L i L i H 1 @ @ 4 2.: : = : 4 e k v k D j Z * % * 8 v ^ ",
"@ g.9.7 6 = < *.g.6 ] v ; = ; p 2 @ X % & = @ & + % @ 4 ;.` ;.U + & Q q.j 8 0 0 8 & @ @ 4 ;.e : : : : > e v G r v q : @ = q U ..",
"- x + + + - * 8 j & ,.y.q.: 4 0 4 2 ; ; : 4 & = % @ 4 [ <.U ,.4 X & L D ; ; & ; & @ % % 4 @.Q : : : : : 4 8 e D v e 8 @ : L ^ @.",
"* % % % @ < * 4 & @ ` ` : @ 4 Q J p ; 2 e U J v 4 : J 1 3 : * @ X X 3 & & : & & & & % @ : ;.;.: - : : : : : 4 r k e e + < U ..=.",
"< , * + q - * 4 2 @ : : @ + 1 U 5 # @ : 8 e ~ v + - S S U j 8 4 : * : : : : % & & ; & + 4 y.y.8 - : - : : : : : e q e @ 8 ` J ;.",
"7 q k.e 4 % = - 1 & ; & @ + 4 G & X # > : 8 S - . @ v o.L Z o.U * > q e x v e Z 0 3 3 ; 8 Q > @ @ % = - : , : : < 8 k = 4 ` ;.2.",
"% = q % ^ q : < ; ; @ % @ @ 1 4 & + @ : : , v 8 X @ q L Z ] U : + : 4 8 L v L P ` G ` 8 4 r 3 : - * @ @ + % = : - : 8 : U ;.2.Q ",
"+ : + + x - % x 8 8 3 4 1 & 1 ; * * @ ; 4 : : q + $ 0 j o.U - + o < : : q q v q v S J = & v U U U S U S x 4 : & : * : : U e 1 & ",
"* * % , < $ = q 8 1 L G 4 : 4 < : : & & : : 1 j & @ Z ^ ^ 4 + % + q 4 * 8 8 v q e v 4 X @ x ` G v v x v v S U U x e 8 8 ;.e q 8 ",
"^ : - @ @ + * 8 1 @ & + @ 1 ` ` S 8 : : = & ; : ; & ` Z , : # + + 4 p * : : e v v v : + @ 8 ` U Z Z Z Z C Z C j x x 4 : ;.;.@.` ",
"@ 4 x < < % % q @ X X @ : 4 4 : * % - 8 8 : : : : : j 3 & : : % + 4 S - : : 4 0 e r 4 @ @ < ` <.^ U Z Z Z Z Z Z B 4 : ; ;.y.2.` ",
"+ V < q U < * - @ @ + : v & X @ o < < 4 v j 0 4 1 4 3 : : = : * @ < ] : : * : : v p x @ % x ^ <.o.^ Z Z U Z Z x B - = ; ^ 2.y.q.",
"% @ * @ + @ : q q + = U e @ @ X : J & 8 e 8 v e 6 0 o.v q 4 : : @ 8 p.- - - - = 8 e e & * v ` 2...e 4 0 k k B Q > @ % - S <.t.3.",
"- +   + + , % 4 O.< 6 ^ :   @ : k J @ 2 x q r e = 4 ,.;.) O.` 0 : e ] - - = : - : : x : @ ` 2.` 4 : = : : : > 4 # o % * B | 7.y.",
"< : : + & < * : - @ 4 e : X = 8 } 8 X 4 p 4 8 4 + q x 4 : : * * : 8 8 < : = = * = : 8 : ; ;.` 4 : : : : : : : ; # o # * G J q.y.",
"% : O., q % @ - * X e Z ` : 8 q ) &   4 p k k = X < * + @ X + : 8 4 e x q 4 : : = : ; : 4 ` 1 : 1 : : : ; : ; : & o % & G } 7.J ",
"@ - = % < % * , : + x 7 : @ 4 e q * @ : , 3 3 + @ - @ @ @ - e ` 8 : S e e v 0 j 4 4 : : 4 0 = ; ; ; : : : ; ; : > + + * D <.} & ",
"+ * + $ 8 4 - % : @ 4 q @ X 4 U q x : - 4 : @ + + % $ $ : x U Q , % o.6 0 j 6 q k e r 4 : 4 4 2 : : : : : : ; = : % . : k <.4 X ",
"4 - % % q * * 4 : & 4 w % X 4 B x : % : S ` 4 : + @ % ; S =.Q @.; % ;.Z e q r 8 5 8 r : : 8 ^ S v e 4 : = : : : : - X : J D & @ ",
"- - : & * + $ e 8 4 q 8 - X e ;.< X + - 4 S O.S 4 = q ^ Q U Q #.$ $ ^ Z 0 8 G e e k 4 & 4 , 4 x v ` ` U r e 2 : : > # & #.; + & ",
"X 4 k : @ @ & 8 4 : >.] v = 8 L % O % - = e ] ;.6 : L ..L Q ` G + @ Z o.0 q 0 e q Z - O 6 q : 4 e x S U ] U S S 8 4 - : < = q Z ",
"& e : 8 r & & j & * v 8 q : 6 4 - $ + = = 4 v e + % q e 0 Q ` e X $ ` ;.j q e q 6 q % O 6 e : - 8 p v S v U U U ..U q 4 q q ^ ..",
"; : % 8 v 1 4 2 @ @ @ + @ : ^ U 4 - o : : : 4 : . + v p s D q , . + q o.C q q 6 V < $ + 8 U : : < 5 e e e v U U L L Z : 6 Z 0 6 ",
": 4 @ @ : 4 : v X X @ - q 6 O.;.O.x * : * * 2 1 o + e L r j V 0 < : , : & : 4 q q % O + < ;.: : < < q q e x x v ^ ^ 6 $ - q 6 s ",
": 2 8 = 4 > @ U S % % 5 x % < 6 < < : : = ; : 4 # # B B q q C Z % : 6 s 4 , - = , + o + < ;.< % < < < q j e e x L ^ : $ - q q q ",
"+ ; @.8 e 4 % 1 p.< B *.U @ + + X * - < : : = - # % q B ^ Z 3 - o = 3 0 L Z s 4 : * + + , &.S > : : < 4 j e e v 4 0 : & , 6 6 4 ",
"X : 4 @ x - @ > > # < S > o + # < x - 4 8 > : : * * p x S V : + + > , , s ..P Z 6 4 * + , ` [ - - : - , 4 0 0 0 s s = $ = < s q ",
": ; @ + e X * - # O 5 S % . # 4 v U # > p 8 8 4 * : B p 4 * % + o < 3 - 3 q S ] ] S V = 6 y.&.% - : - % : 4 r 6 V 0 = $ $ < s s "
};
