/* XPM */
static char *_31f0860b4e94a0cbc4c1dd1cde6a2fa5DHABSuiglp35RB7[] = {
/* columns rows colors chars-per-pixel */
"64 64 133 2 ",
"   c #585856",
".  c #5E5E5C",
"X  c #646462",
"o  c #696967",
"O  c #6C6C6A",
"+  c #71716F",
"@  c #747472",
"#  c #797977",
"$  c #7D7D7B",
"%  c #848482",
"&  c #898987",
"*  c #8C8C8A",
"=  c #92918F",
"-  c #939391",
";  c #9D9D9B",
":  c #A1A19F",
">  c #A6A5A3",
",  c #A9A9A7",
"<  c #ADADAB",
"1  c #B0AFAD",
"2  c #B1B1AE",
"3  c #B4B4B2",
"4  c #B9B9B6",
"5  c #BDBCBA",
"6  c #C0BFBD",
"7  c #C1C1BE",
"8  c #C5C5C2",
"9  c #C8C7C5",
"0  c #C9C9C6",
"q  c #CDCDCB",
"w  c #D0CFCD",
"e  c #CFD0CB",
"r  c #D1D1CF",
"t  c #D5D5D3",
"y  c #D8D7D5",
"u  c #D7D8D4",
"i  c #DAD9D6",
"p  c #D9D7D8",
"a  c #DBDDDA",
"s  c #DADCD9",
"d  c #DDDCD8",
"f  c #DCDDD8",
"g  c #DEDDD9",
"h  c #DDDED9",
"j  c #DCDCDA",
"k  c #DDDCDA",
"l  c #DDDDDB",
"z  c #DEDDDB",
"x  c #DCDEDB",
"c  c #DFDEDA",
"v  c #DEDFDA",
"b  c #DDDBDC",
"n  c gainsboro",
"m  c #DDDDDD",
"M  c #DEDCDD",
"N  c #DDDFDC",
"B  c #DEDEDC",
"V  c #DFDEDC",
"C  c #DFDFDD",
"Z  c #DFDDDE",
"A  c #DDDFDE",
"S  c gray87",
"D  c #DFDFDF",
"F  c #DCDCDA",
"G  c #E0DCDB",
"H  c #E0DFDB",
"J  c #E2DEDB",
"K  c #E1DDDC",
"L  c #E0DFDD",
"P  c #E3DFDC",
"I  c #E0DEDF",
"U  c #E0DFDD",
"Y  c #DFE0DB",
"T  c #DEE0DD",
"R  c #DFE1DE",
"E  c #DEE0DF",
"W  c #DFE0DB",
"Q  c #E3E0DB",
"!  c #E1E0DC",
"~  c #E0E1DC",
"^  c #E2E1DC",
"/  c #E2E1DD",
"(  c #E1E2DD",
")  c #E3E2DD",
"_  c #E0E0DE",
"`  c #E1E0DE",
"'  c #E1E1DF",
"]  c #E2E1DF",
"[  c #E3E2DE",
"{  c #E4E1DC",
"}  c #E4E0DD",
"|  c #E5E2DD",
" . c #E5E1DE",
".. c #E4E3DE",
"X. c #E4E3DF",
"o. c #E6E3DE",
"O. c #E6E2DF",
"+. c #E1E1DE",
"@. c #E1DFE0",
"#. c gray88",
"$. c #E1E1E1",
"%. c #E2E0E1",
"&. c #E1E3E0",
"*. c #E2E2E0",
"=. c #E3E2E0",
"-. c #E3E3E1",
";. c #E3E1E2",
":. c #E2E2E2",
">. c gray89",
",. c #E4E3E1",
"<. c #E4E2E3",
"1. c #E5E4E0",
"2. c #E6E5E1",
"3. c #E4E4E2",
"4. c #E5E4E2",
"5. c #E5E5E3",
"6. c #E6E5E3",
"7. c #E7E6E2",
"8. c #E5E3E4",
"9. c #E4E4E4",
"0. c gray90",
"q. c #E6E4E5",
"w. c #E6E6E4",
"e. c #E7E6E4",
"r. c #E7E7E5",
"t. c #E6E6E6",
"y. c #E4E3E2",
"u. c #E8E7E5",
"i. c #E8E6E7",
"p. c #E9E9E7",
"a. c #E9E9E7",
"s. c #EFEFED",
"d. c #EBEAE8",
/* pixels */
"L L z ` 4.F t t y F y 0 y i.L P :.t.9.#.#.:.#.#.#.D :.9.$.$.S n m D *.*.E E ` ` V *.,.V *.` t q L L ` ` i F F y y i y F y L L L ",
"` V F V ,.z t t y t w q r L V L :.t.9.:.:.:.#.#.:.D #.:.$.A S S D D *.` ` ` ` E V V t.V ,.L y q L } L ` G i t y F i F F F F P L ",
"` z F F ,.` y t i q w t y F F F :.t.:.:.:.#.#.#.#.D n D $.A A A D D #.*.` ` ` E F s ,.L i.L F 8 z ` L z F y i y y t F F L p ,.L ",
"L L z z ` ,.z y i w w F F F y y :.9.:.#.:.:.D #.#.D n D #.A n p D #.#.` -.-.` ` V i ` L ` L L 8 L L *.z p F ,.F y w t y F F L F ",
"z L L V L ,.L i F y w t G F y F D #.#.D #.:.D #.D #.D D #.D p t -.` ` E -.-.` ` t.z s F F L ,.q t ` *.y y t w L t w q t y L L F ",
"F L ` L z ` ` F y F t t L L p F n #.D n #.#.#.D D #.D #.:.n t r -.E X.-.-.-.-.-.*.V F L F *.,.9 q *.L t y q 2 G F t q t F ,.G F ",
"L L ` ` z ` ` F y F y F ,.,.L y n #.#.n D #.D n n :.D D 9.n t u ` ` -.` *.X.-.-.V V V L L L *.8 9 L ,.z L y 1 t L G t t L ,.L L ",
",.` ,.` z ` ` z y y t L L L ,.i n :.:.n n :.D n n #.D D :.n t p E -.-.` E E -.-.*.L L F ,.L ,.9 0 t } L s i.4 8 L G t w L L L ,.",
"@.*.` *.` ,.,.` y y G G ` z ) g s @.*.z f *.#.f f V #.#.E n p p E z r.` *.*.*.E *.*.z V V V *.s r y L L L G w q L z y t G ,.L ` ",
"L ` *.*.` L L L i p L L { z ) G p p V b V V V V *.E E D A A r r f V t.` V *.*.V *.*.*.*.E V V u 9 y i.L y L 0 4 F F F L L L ,.,.",
"L L ` } ` ` L z F F L L ` z { g u u s V V n n n n s p s A p r r t E X.E L V ` @.E V E ` #.E n V 0 t L L t @.0 5 ,.F F L L z L L ",
"L *.,.` ` L L L F y ,.L ` f z i u u s n n V f f y u s s s u r r r z ` E *.F V L 4.*.-.` V V u s i F F L y G q 3 z L F F F F i z ",
",.` ,.` ` ` ` *.V y L L X.` z s u s V V V V V s s s F s u r 0 r t i V f t.s s p i f *.E E ` s n y ` z i F i y 2 8 z ,.L L F y ,.",
"` } ` ` ` ,.,.4.z t L L -.*.L L s V V V *.*.@.F p s b y t w q t u f D u b F s s 5 t V V *.t.V V t G V y F y ,.w 8 V } z L L F 4.",
"` { ` ` ` ` ,.L L t *.L ,.,.` ` V V E *.*.V V s t t u u u r r p n V E t 0 V s s 2 t *.#.` ` V u L L L V L t z F y z G i F L ,.,.",
"` { z { } ` L F L y 4.L ,.,.@.,.` V E *.#.V p n u t r t u u r p s V f 0 3 V t s , u 9.*.` ` *.f y F ` F F L y s z i L L p L 6.L ",
"{ ` { { z i z i i F L ,.` L L ,.*.,.` V V V n f t t q 8 r n r u s n s V < t s t - s t.n V :.s V y s p F L L F y F L L F L G F L ",
"{ W g g i t y r u z L L ,.,.` ,.L ,.E V V u w q e q 8 5 3 t 0 r L V s D 3 > q < $ V f V *.V V s y y i F V L F y F L L L L F F F ",
"i g u i i u i t y ` ` L ,.4.,.` ` *.V z V V n n s t 4 2 - 0 w t V *.n V r X % & & a.V n V V *.F F z G z L F i y F L L L L F y F ",
"u g u H L V G i z ` ` z *.,.L ` *.*.V s s V E *.V #.n q < 8 9 r @.s s u *.O & u 5 V f *.-.#.s *.L z L L L L F i i F L L ,.L F y ",
"t d i H ,.` L z L ` z z ` ` V *.E ` V s n f n V V f V V t 9 7 8 i t s V *.% # t.u t n u u *.V z i F F L L L L L F F V } L L G F ",
"r H i i ` L V V ` z z z z z ` 4.V *.E V ` *.V V *.t.s V #.4.i i u s r s #.; # #.u p V t 8 q t.*.F F z L L L ` ,.F i F L L L L F ",
"e J y y F F z L ` z L z i i ` ` *.-.#.V V V f s u t.X.` f #.z z u V w q *.1 - n s u n *.5 5 t ,.` L ` ,.L L L ` L y p L L L L L ",
"e J y r y y s V ` z ` L t F X.z z E V V D D s s ` u u E -.E E z V p p 5 0 5 3 w t V *.*.3 9 5 8 L L L L L F G L ` F s L L L ` L ",
"Q e i r F F t @.b p @.,.` z i u z { W { L L F y F s F b ` X.#.E V V y q > 8 t 8 5 ` L ,.q q ` 6 q z ` z z z z 4.,.L i g { G { G ",
"o.i w ) y ,.t @.@.p L 8.*.W G { ` { W z L L F u s F V L E ` E ` s n L s - q p 3 5 t.z L y t z q 8 u z z ` ` W ..,.L i z { { } } ",
"g o.6 y L F ,.8.b F G ,.4.` ....` W z V L L s u s s V V z z E E s L u n & $ 8 * : *.L L ,.z L L g ` z u z g g ` } ` { W ) | ..o.",
"{ ) r 7 @.L b 8.b p p L ` ` 4...` V z V b F F s p F s V z W z z *.s b 0 - . X o @ r L F ` L ` *.{ } { z { g i { } ..{ { ) ) o.o.",
"{ 4.i 8 z ` i.F @.p y F L @.} ` ` z z L z s s V V V z z V E E W s D t * X * 5 - + 9 *.F s V L f z { z g G g g { ` ......| ) Q | ",
"} u 4.t 5 L 8.8.@.p y F *.} ..` ` z L ` z y y V s V z s V ` W g V V u #   : s.q ; q ` *.F V ` z ..` W i u u i ) ..4...} J | | Q ",
"` ..` ..5 8 ,.@.,.b y b L L } ` ` z V ` L y i F s b V s z W W W s t n 3 @ ; 9.u 6 t F L F z z z i z { ` z ` ` ` ....} } P P | P ",
"` ..` ` ` 7 8.@.@.b F L L L ` 4.` V z L L i s V s V z z i W W W V u V *.u > s n q y F *.L ` ` ` } E W z z ` ` E } ` o.P P o.o.| ",
":.t.D :.D s *.-.V u n *.V f #.#.L y i z L F s s s V b s p y F b @.s V y i.3 q L w t y ` z ` *.L z { { z g d d d Q { { W ` W ` ` ",
":.:.D :.D n f #.9.u #.V f t.*.f z F F L L L V s y F V b s F s F V b F z ` 0 6 z y t t G L L L *.G G W g d d i g W { ..X.{ W { ..",
":.D :.:.:.:.u #.V f t V #.s #.V z F L G b L V p y s F F V F s s F *.F G L F 5 i F t t i } V V *.W { z g u i i g z { X.X.{ { i i ",
":.D :.D *.n t E n s 5 0 *.V V V G F F F F F s s s s s s s V V V L L F F L L 8 t F t y y ,.L z L { W g g g g z W { W W ` X.{ r r ",
":.t.D D n t q n s t q 7 0 :.V *.z i F V V F V *.L F s s F F F L ` G L F F L w 9 G F F t L ,.` ` z W W W z g W { ) Q Q Q W { u r ",
":.t.D D #.t r *.u q V w 5 q V *.L F z L *.V V *.L b F b F s s F L L F ` i G w 8 F F z q t ,.` ` { z g { { { W ` ^ Q d d i u i u ",
"D D :.:.t.n e t.n t w p q q L s L F L ,.L L V *.V s F V b s s z L L F L F z t q F F F w 0 L } ` { W g z z W { X.Q W J u t r i H ",
"D n :.D 9.n 9 n n n r t V V s F y F L L L *.*.V b u i F F s s @.L L L y L G y t F F G r q L P P ` z g g g i g { ) W J y y t i u ",
"s n s :.@.V 5 s ,.y u t p u t.s F ,.` L *.L V V V p t u t D s V L L L L z W z i t F z i e r | P V W { z { z G z X.` y G H y G G ",
"V *.s V ,.*.5 q t.*.V V q u *.*.L ,.G L L L V V V s s u u s y F L L L L z ` z s t r i G r 0 u P z z g g i g W { { { y i J u y G ",
"D *.s u *.t.0 5 s s V F V u b V L ,.L ,.,.G s s s y s u p s s V V L L L E G ` z w r i t r e r d g g z g g g H G W g r g Q J G J ",
"V n V z u *.V < L t.V s :.s s b L ,.L *.@.F s s s p s t s p b L z L ` ` V { z z w t y 0 7 y u u u i W { g i i G z u u d H J J J ",
"&.s &.A t u n 5 4 V V L y F y ,.,.,.L L z y V V V E i q u u u W F z H H g g g g i y r e r y t Q r i H H F i i F z t t u d { W { ",
"&.E s A s t s V % 3 V L F V F F L ,.,.,.F y t t t #.f q e r W W g i g H H g g g i y u u t r t J u i z G b s L L z t t p g { ` E ",
"s s r u V s u i.; - ,.i ,.F ,.y F b L L y t q 9 5 n n t e r W W g g g g H g g g i i i t e y Q d V L { G n p s s s q t t f X.` E ",
"s s t r u D u s q % L L L F L L ` L L L s s z t , u -.f e t u W G g g g { g g g ) i r y y y { J L *.*.` m t w r p q t u s ` E E ",
"s s t u s n s t q * < V z } z z F L L G V V V V 3 0 X.W u e f W V ` ` z ` { z z J d i y r u W { L 4.{ z b w 0 p t 0 q t p n V V ",
"n f s s p n s s r % = D u s ` ` F z L L V V V V q 7 W W u u W u ` ` ` ` ` ` E ` Q y y u u g z { ` } { z V r q u s t r t s V V s ",
"p p u u p n A A w A ; 0 *.` { { z F z L L F z V e 5 W W u f f f V ` ` V ` ` z ` Q u r u H H G G { X.W z V t q t p u r r t s p t ",
"p p p t p n A E 7 6 < 1 z V W X.L F F L L F s V 7 4 ) i W W u W z z z z ` ` z { Q d u r { G i z W ` { W D u w u s p u t t p u r ",
"p A p t p n A E ` 2 > % ` z z ` L G F L F F s z e 2 f W W W f u t g g H { W z z Q z u i L L F L z ` ` { z u t t s s s p r t t t ",
"u s p t p n A >.*.,., % q *.,.*.L L z L L F s s W < 7 W f f W e u i g G X.` W W g W F i F G F L z { ` W z i t u u u s t q q w q ",
"w p t q t n A >.,.8.p.y 4 y *.L L L F V F G F z W 7 7 W f f W u u g g { ` { W { ` G G z s F L F g { X.{ z f u t p s n n r r r r ",
"r p t q t p p A V V ,.L L w L L F L L F F L z F W ..e u W f f W z { g g W { z ` ` z ` i y G L F W { W W V V s t p u A A u r r r ",
"y t G y s i t F D s L ,.i.y F y z V V ` V F L y F F s s s z z f z z ` ` ` ` ` ` L ` F z F i L y z ` L L L z i z V V y F y y t y ",
"i y z p p i i F p y F ,.6.i V } ` ` V z F L s i p F F f z z V z E { ` ` ` ` V { L L z F i t F F L ` ` z L F y z s b i F p F y y ",
"i i L F y t z z i F L L 4.` L ,.t.z t.f ` ` y s y F V V z z z z z ` ` ` ` ` V E L z L z s w y L L ` L z z F i z y F F F L F F F ",
"y F L L y 0 L ` F s ,.L ` 4.` L *.V p.u 0 t.z z F V V V V z z z z ` ` ` ` ` ` ` V F L V F w y L L L L z z z z z F F b y L F L F ",
"y F L } y 9 G @.L w y ,.L ,.,.L E p.4.e : p.` E z z V V ` E z f L ` ` ` ` ` ` ` L z V L L r r F z z L ` G z z F F p F y F F z z ",
"z F F L F w V b ,.9 w ,.,.L *.4.4.` 4.q < t -.V V z V E ` ` E z ` ` ` ` L z L L ` ` L L L y w y L z L ` G F i y p F F y G z z F ",
"V F F L P u F F ,.t 0 F ,.L L 4.r.z t.t q 0 *.` V V V *.` ` ` E ` ` ` ` L ` L L ` } L ` L G q t L z L ` F i i y y i s s z ` L G ",
"F F F L ,.y F L L L q t F ,.L ,.` i.E s t u *.E *.E *.*.E z z ` ` ` ` ` ` ` ` ` L t.L ` z ,.r y L F L L z i G p t i y i i ` L L "
};
